<?xml version="1.0" encoding="UTF-8" standalone="no"?>
<svg width="161.219mm" height="25.4mm"
 xmlns="http://www.w3.org/2000/svg" xmlns:xlink="http://www.w3.org/1999/xlink"  version="1.2" baseProfile="tiny">
<title>Qt SVG Document</title>
<desc>Generated with Qt</desc>
<defs>
</defs>
<g fill="none" stroke="black" stroke-width="1" fill-rule="evenodd" stroke-linecap="square" stroke-linejoin="bevel" >

<g fill="none" stroke="#000000" stroke-opacity="1" stroke-width="1" stroke-linecap="square" stroke-linejoin="bevel" transform="matrix(1,0,0,1,0,0)"
font-family="Ubuntu" font-size="11" font-weight="400" font-style="normal" 
>
</g>

<g fill="none" stroke="#000000" stroke-opacity="1" stroke-width="1" stroke-linecap="square" stroke-linejoin="bevel" transform="matrix(1,0,0,1,0,0)"
font-family="Ubuntu" font-size="11" font-weight="400" font-style="normal" 
>
</g>

<g fill="none" stroke="#000000" stroke-opacity="1" stroke-width="1" stroke-linecap="square" stroke-linejoin="bevel" transform="matrix(2,0,0,2,1.42109e-14,72)"
font-family="Ubuntu" font-size="11" font-weight="400" font-style="normal" 
>
</g>

<g fill="#ffffff" fill-opacity="1" stroke="none" transform="matrix(2,0,0,2,1.42109e-14,72)"
font-family="Ubuntu" font-size="11" font-weight="400" font-style="normal" 
>
<rect x="-7.10543e-15" y="-36" width="228.388" height="36"/>
</g>

<g fill="none" stroke="#000000" stroke-opacity="1" stroke-width="1" stroke-linecap="square" stroke-linejoin="bevel" transform="matrix(2,0,0,2,1.42109e-14,72)"
font-family="Ubuntu" font-size="11" font-weight="400" font-style="normal" 
>
</g>

<g fill="none" stroke="#000000" stroke-opacity="1" stroke-width="1" stroke-linecap="square" stroke-linejoin="bevel" transform="matrix(2,0,0,2,1.42109e-14,72)"
font-family="Ubuntu" font-size="11" font-weight="400" font-style="normal" 
>
</g>

<g fill="none" stroke="#000000" stroke-opacity="1" stroke-width="1" stroke-linecap="square" stroke-linejoin="bevel" transform="matrix(2,0,0,2,1.42109e-14,72)"
font-family="Ubuntu" font-size="11" font-weight="400" font-style="normal" 
>
</g>

<g fill="none" stroke="#000000" stroke-opacity="1" stroke-width="1" stroke-linecap="square" stroke-linejoin="bevel" transform="matrix(2,0,0,2,1.42109e-14,72)"
font-family="Ubuntu" font-size="11" font-weight="400" font-style="normal" 
>
</g>

<g fill="none" stroke="#000000" stroke-opacity="1" stroke-width="1" stroke-linecap="square" stroke-linejoin="round" transform="matrix(2,0,0,2,1.42109e-14,72)"
font-family="Ubuntu" font-size="11" font-weight="400" font-style="normal" 
>
<ellipse cx="48.096" cy="-18" rx="47.596" ry="17.5"/>
</g>

<g fill="none" stroke="#000000" stroke-opacity="1" stroke-width="1" stroke-linecap="square" stroke-linejoin="bevel" transform="matrix(2,0,0,2,1.42109e-14,72)"
font-family="Ubuntu" font-size="11" font-weight="400" font-style="normal" 
>
</g>

<g fill="none" stroke="#000000" stroke-opacity="1" stroke-width="1" stroke-linecap="square" stroke-linejoin="bevel" transform="matrix(2,0,0,2,38.9264,23)"
font-family="Ubuntu" font-size="11" font-weight="400" font-style="normal" 
>
</g>

<g fill="none" stroke="#000000" stroke-opacity="1" stroke-width="1" stroke-linecap="square" stroke-linejoin="bevel" transform="matrix(2,0,0,2,38.9264,23)"
font-family="sans" font-size="11" font-weight="100" font-style="normal" 
>
</g>

<g fill="#000000" fill-opacity="1" stroke="#000000" stroke-opacity="1" stroke-width="1" stroke-linecap="square" stroke-linejoin="round" transform="matrix(2,0,0,2,38.9264,23)"
font-family="sans" font-size="11" font-weight="100" font-style="normal" 
>
<path vector-effect="none" fill-rule="nonzero" d="M2.79688,1.98438 L3.70312,1.98438 L0.90625,11.0156 L0,11.0156 L2.79688,1.98438 M4.64062,7.625 L4.64062,3.98438 L5.625,3.98438 L5.625,7.59375 C5.625,8.15625 5.73698,8.58073 5.96094,8.86719 C6.1849,9.15365 6.51562,9.29688 6.95312,9.29688 C7.49479,9.29688 7.91927,9.1276 8.22656,8.78906 C8.53385,8.45052 8.6875,7.98438 8.6875,7.39062 L8.6875,3.98438 L9.67188,3.98438 L9.67188,10 L8.6875,10 L8.6875,9.07812 C8.44792,9.44271 8.16927,9.71354 7.85156,9.89062 C7.53385,10.0677 7.16667,10.1562 6.75,10.1562 C6.0625,10.1562 5.53906,9.9401 5.17969,9.50781 C4.82031,9.07552 4.64062,8.44792 4.64062,7.625 M15.5469,4.15625 L15.5469,5.09375 C15.2656,4.94792 14.974,4.84115 14.6719,4.77344 C14.3698,4.70573 14.0573,4.67188 13.7344,4.67188 C13.2448,4.67188 12.8776,4.7474 12.6328,4.89844 C12.388,5.04948 12.2656,5.27083 12.2656,5.5625 C12.2656,5.79167 12.3542,5.97135 12.5312,6.10156 C12.7083,6.23177 13.0625,6.35938 13.5938,6.48438 L13.9219,6.5625 C14.6302,6.70833 15.1302,6.91927 15.4219,7.19531 C15.7135,7.47135 15.8594,7.85417 15.8594,8.34375 C15.8594,8.89583 15.6406,9.33594 15.2031,9.66406 C14.7656,9.99219 14.1562,10.1562 13.375,10.1562 C13.0521,10.1562 12.7161,10.125 12.3672,10.0625 C12.0182,10 11.651,9.90625 11.2656,9.78125 L11.2656,8.76562 C11.6302,8.95312 11.9896,9.09375 12.3438,9.1875 C12.6979,9.28125 13.0521,9.32812 13.4062,9.32812 C13.8646,9.32812 14.2188,9.2474 14.4688,9.08594 C14.7188,8.92448 14.8438,8.70312 14.8438,8.42188 C14.8438,8.15104 14.7552,7.94271 14.5781,7.79688 C14.401,7.65104 14.0052,7.51562 13.3906,7.39062 L13.0469,7.29688 C12.4323,7.17188 11.9896,6.97656 11.7188,6.71094 C11.4479,6.44531 11.3125,6.07812 11.3125,5.60938 C11.3125,5.04688 11.513,4.61198 11.9141,4.30469 C12.3151,3.9974 12.8854,3.84375 13.625,3.84375 C13.9896,3.84375 14.3333,3.86979 14.6562,3.92188 C14.9792,3.97396 15.276,4.05208 15.5469,4.15625 M21.75,7 C21.75,6.27083 21.599,5.70052 21.2969,5.28906 C20.9948,4.8776 20.5833,4.67188 20.0625,4.67188 C19.5417,4.67188 19.1328,4.8776 18.8359,5.28906 C18.5391,5.70052 18.3906,6.27083 18.3906,7 C18.3906,7.72917 18.5391,8.29948 18.8359,8.71094 C19.1328,9.1224 19.5417,9.32812 20.0625,9.32812 C20.5833,9.32812 20.9948,9.1224 21.2969,8.71094 C21.599,8.29948 21.75,7.72917 21.75,7 M18.3906,4.89062 C18.5885,4.53646 18.8464,4.27344 19.1641,4.10156 C19.4818,3.92969 19.8646,3.84375 20.3125,3.84375 C21.0417,3.84375 21.6328,4.13281 22.0859,4.71094 C22.5391,5.28906 22.7656,6.05208 22.7656,7 C22.7656,7.94792 22.5391,8.71094 22.0859,9.28906 C21.6328,9.86719 21.0417,10.1562 20.3125,10.1562 C19.8646,10.1562 19.4818,10.0703 19.1641,9.89844 C18.8464,9.72656 18.5885,9.45833 18.3906,9.09375 L18.3906,10 L17.3906,10 L17.3906,1.64062 L18.3906,1.64062 L18.3906,4.89062 M28.9688,11.8281 L28.9688,12.5938 L23.25,12.5938 L23.25,11.8281 L28.9688,11.8281 M34.2188,4.21875 L34.2188,5.14062 C33.9479,4.98438 33.6719,4.86719 33.3906,4.78906 C33.1094,4.71094 32.8229,4.67188 32.5312,4.67188 C31.8958,4.67188 31.401,4.875 31.0469,5.28125 C30.6927,5.6875 30.5156,6.26042 30.5156,7 C30.5156,7.72917 30.6927,8.29688 31.0469,8.70312 C31.401,9.10938 31.8958,9.3125 32.5312,9.3125 C32.8229,9.3125 33.1094,9.27604 33.3906,9.20312 C33.6719,9.13021 33.9479,9.01562 34.2188,8.85938 L34.2188,9.76562 C33.9479,9.90104 33.6641,10 33.3672,10.0625 C33.0703,10.125 32.7552,10.1562 32.4219,10.1562 C31.5156,10.1562 30.7969,9.8724 30.2656,9.30469 C29.7344,8.73698 29.4688,7.96875 29.4688,7 C29.4688,6.02083 29.737,5.25 30.2734,4.6875 C30.8099,4.125 31.5469,3.84375 32.4844,3.84375 C32.7969,3.84375 33.0964,3.875 33.3828,3.9375 C33.6693,4 33.9479,4.09375 34.2188,4.21875 M38.4531,10.5625 C38.1719,11.2812 37.8984,11.7474 37.6328,11.9609 C37.3672,12.1745 37.0104,12.2812 36.5625,12.2812 L35.7812,12.2812 L35.7812,11.4688 L36.3594,11.4688 C36.6302,11.4688 36.8411,11.4036 36.9922,11.2734 C37.1432,11.1432 37.3073,10.8385 37.4844,10.3594 L37.6719,9.90625 L35.2344,3.98438 L36.2812,3.98438 L38.1562,8.6875 L40.0469,3.98438 L41.0938,3.98438 L38.4531,10.5625 M46.7656,4.21875 L46.7656,5.14062 C46.4948,4.98438 46.2188,4.86719 45.9375,4.78906 C45.6562,4.71094 45.3698,4.67188 45.0781,4.67188 C44.4427,4.67188 43.9479,4.875 43.5938,5.28125 C43.2396,5.6875 43.0625,6.26042 43.0625,7 C43.0625,7.72917 43.2396,8.29688 43.5938,8.70312 C43.9479,9.10938 44.4427,9.3125 45.0781,9.3125 C45.3698,9.3125 45.6562,9.27604 45.9375,9.20312 C46.2188,9.13021 46.4948,9.01562 46.7656,8.85938 L46.7656,9.76562 C46.4948,9.90104 46.2109,10 45.9141,10.0625 C45.6172,10.125 45.3021,10.1562 44.9688,10.1562 C44.0625,10.1562 43.3438,9.8724 42.8125,9.30469 C42.2812,8.73698 42.0156,7.96875 42.0156,7 C42.0156,6.02083 42.2839,5.25 42.8203,4.6875 C43.3568,4.125 44.0938,3.84375 45.0312,3.84375 C45.3438,3.84375 45.6432,3.875 45.9297,3.9375 C46.2161,4 46.4948,4.09375 46.7656,4.21875 M48.4844,1.64062 L49.4844,1.64062 L49.4844,10 L48.4844,10 L48.4844,1.64062 M56.6875,6.75 L56.6875,7.23438 L52.1406,7.23438 C52.1823,7.91146 52.3854,8.42708 52.75,8.78125 C53.1146,9.13542 53.625,9.3125 54.2812,9.3125 C54.6667,9.3125 55.0365,9.26562 55.3906,9.17188 C55.7448,9.07812 56.099,8.94271 56.4531,8.76562 L56.4531,9.6875 C56.099,9.84375 55.7344,9.96094 55.3594,10.0391 C54.9844,10.1172 54.6094,10.1562 54.2344,10.1562 C53.2656,10.1562 52.5026,9.8776 51.9453,9.32031 C51.388,8.76302 51.1094,8.00521 51.1094,7.04688 C51.1094,6.06771 51.375,5.28906 51.9062,4.71094 C52.4375,4.13281 53.1562,3.84375 54.0625,3.84375 C54.8646,3.84375 55.5026,4.10417 55.9766,4.625 C56.4505,5.14583 56.6875,5.85417 56.6875,6.75 M55.6875,6.45312 C55.6875,5.91146 55.5391,5.47917 55.2422,5.15625 C54.9453,4.83333 54.5521,4.67188 54.0625,4.67188 C53.5104,4.67188 53.0703,4.82812 52.7422,5.14062 C52.4141,5.45312 52.224,5.89062 52.1719,6.45312 L55.6875,6.45312"/>
</g>

<g fill="none" stroke="#000000" stroke-opacity="1" stroke-width="1" stroke-linecap="square" stroke-linejoin="bevel" transform="matrix(2,0,0,2,38.9264,23)"
font-family="sans" font-size="11" font-weight="100" font-style="normal" 
>
</g>

<g fill="none" stroke="#000000" stroke-opacity="1" stroke-width="1" stroke-linecap="square" stroke-linejoin="bevel" transform="matrix(2,0,0,2,38.9264,23)"
font-family="Ubuntu" font-size="11" font-weight="400" font-style="normal" 
>
</g>

<g fill="none" stroke="#000000" stroke-opacity="1" stroke-width="1" stroke-linecap="square" stroke-linejoin="bevel" transform="matrix(2,0,0,2,1.42109e-14,72)"
font-family="Ubuntu" font-size="11" font-weight="400" font-style="normal" 
>
</g>

<g fill="none" stroke="#000000" stroke-opacity="1" stroke-width="1" stroke-linecap="square" stroke-linejoin="bevel" transform="matrix(2,0,0,2,1.42109e-14,72)"
font-family="Ubuntu" font-size="11" font-weight="400" font-style="normal" 
>
</g>

<g fill="none" stroke="#000000" stroke-opacity="1" stroke-width="1" stroke-linecap="square" stroke-linejoin="bevel" transform="matrix(2,0,0,2,1.42109e-14,72)"
font-family="Ubuntu" font-size="11" font-weight="400" font-style="normal" 
>
</g>

<g fill="none" stroke="#000000" stroke-opacity="1" stroke-width="1" stroke-linecap="square" stroke-linejoin="round" transform="matrix(2,0,0,2,1.42109e-14,72)"
font-family="Ubuntu" font-size="11" font-weight="400" font-style="normal" 
>
<ellipse cx="186.79" cy="-18" rx="41.098" ry="17.5"/>
</g>

<g fill="none" stroke="#000000" stroke-opacity="1" stroke-width="1" stroke-linecap="square" stroke-linejoin="bevel" transform="matrix(2,0,0,2,1.42109e-14,72)"
font-family="Ubuntu" font-size="11" font-weight="400" font-style="normal" 
>
</g>

<g fill="none" stroke="#000000" stroke-opacity="1" stroke-width="1" stroke-linecap="square" stroke-linejoin="bevel" transform="matrix(2,0,0,2,327.877,23)"
font-family="Ubuntu" font-size="11" font-weight="400" font-style="normal" 
>
</g>

<g fill="none" stroke="#000000" stroke-opacity="1" stroke-width="1" stroke-linecap="square" stroke-linejoin="bevel" transform="matrix(2,0,0,2,327.877,23)"
font-family="sans" font-size="11" font-weight="100" font-style="normal" 
>
</g>

<g fill="#000000" fill-opacity="1" stroke="#000000" stroke-opacity="1" stroke-width="1" stroke-linecap="square" stroke-linejoin="round" transform="matrix(2,0,0,2,327.877,23)"
font-family="sans" font-size="11" font-weight="100" font-style="normal" 
>
<path vector-effect="none" fill-rule="nonzero" d="M2.79688,1.98438 L3.70312,1.98438 L0.90625,11.0156 L0,11.0156 L2.79688,1.98438 M4.03125,3.98438 L5.07812,3.98438 L6.95312,9.03125 L8.84375,3.98438 L9.89062,3.98438 L7.625,10 L6.28125,10 L4.03125,3.98438 M11.2344,1.64062 L12.2344,1.64062 L12.2344,10 L11.2344,10 L11.2344,1.64062 M15.25,9.09375 L15.25,12.2812 L14.25,12.2812 L14.25,3.98438 L15.25,3.98438 L15.25,4.89062 C15.4479,4.53646 15.7057,4.27344 16.0234,4.10156 C16.3411,3.92969 16.724,3.84375 17.1719,3.84375 C17.901,3.84375 18.4922,4.13281 18.9453,4.71094 C19.3984,5.28906 19.625,6.05208 19.625,7 C19.625,7.94792 19.3984,8.71094 18.9453,9.28906 C18.4922,9.86719 17.901,10.1562 17.1719,10.1562 C16.724,10.1562 16.3411,10.0703 16.0234,9.89844 C15.7057,9.72656 15.4479,9.45833 15.25,9.09375 M18.6094,7 C18.6094,6.27083 18.4583,5.70052 18.1562,5.28906 C17.8542,4.8776 17.4427,4.67188 16.9219,4.67188 C16.401,4.67188 15.9922,4.8776 15.6953,5.28906 C15.3984,5.70052 15.25,6.27083 15.25,7 C15.25,7.72917 15.3984,8.29948 15.6953,8.71094 C15.9922,9.1224 16.401,9.32812 16.9219,9.32812 C17.4427,9.32812 17.8542,9.1224 18.1562,8.71094 C18.4583,8.29948 18.6094,7.72917 18.6094,7 M25.8281,11.8281 L25.8281,12.5938 L20.1094,12.5938 L20.1094,11.8281 L25.8281,11.8281 M27.7188,9.09375 L27.7188,12.2812 L26.7188,12.2812 L26.7188,3.98438 L27.7188,3.98438 L27.7188,4.89062 C27.9167,4.53646 28.1745,4.27344 28.4922,4.10156 C28.8099,3.92969 29.1927,3.84375 29.6406,3.84375 C30.3698,3.84375 30.9609,4.13281 31.4141,4.71094 C31.8672,5.28906 32.0938,6.05208 32.0938,7 C32.0938,7.94792 31.8672,8.71094 31.4141,9.28906 C30.9609,9.86719 30.3698,10.1562 29.6406,10.1562 C29.1927,10.1562 28.8099,10.0703 28.4922,9.89844 C28.1745,9.72656 27.9167,9.45833 27.7188,9.09375 M31.0781,7 C31.0781,6.27083 30.9271,5.70052 30.625,5.28906 C30.3229,4.8776 29.9115,4.67188 29.3906,4.67188 C28.8698,4.67188 28.4609,4.8776 28.1641,5.28906 C27.8672,5.70052 27.7188,6.27083 27.7188,7 C27.7188,7.72917 27.8672,8.29948 28.1641,8.71094 C28.4609,9.1224 28.8698,9.32812 29.3906,9.32812 C29.9115,9.32812 30.3229,9.1224 30.625,8.71094 C30.9271,8.29948 31.0781,7.72917 31.0781,7 M38.0469,4.21875 L38.0469,5.14062 C37.776,4.98438 37.5,4.86719 37.2188,4.78906 C36.9375,4.71094 36.651,4.67188 36.3594,4.67188 C35.724,4.67188 35.2292,4.875 34.875,5.28125 C34.5208,5.6875 34.3438,6.26042 34.3438,7 C34.3438,7.72917 34.5208,8.29688 34.875,8.70312 C35.2292,9.10938 35.724,9.3125 36.3594,9.3125 C36.651,9.3125 36.9375,9.27604 37.2188,9.20312 C37.5,9.13021 37.776,9.01562 38.0469,8.85938 L38.0469,9.76562 C37.776,9.90104 37.4922,10 37.1953,10.0625 C36.8984,10.125 36.5833,10.1562 36.25,10.1562 C35.3438,10.1562 34.625,9.8724 34.0938,9.30469 C33.5625,8.73698 33.2969,7.96875 33.2969,7 C33.2969,6.02083 33.5651,5.25 34.1016,4.6875 C34.638,4.125 35.375,3.84375 36.3125,3.84375 C36.625,3.84375 36.9245,3.875 37.2109,3.9375 C37.4974,4 37.776,4.09375 38.0469,4.21875 M43.7344,4.89062 L43.7344,1.64062 L44.7188,1.64062 L44.7188,10 L43.7344,10 L43.7344,9.09375 C43.526,9.45833 43.263,9.72656 42.9453,9.89844 C42.6276,10.0703 42.2448,10.1562 41.7969,10.1562 C41.0781,10.1562 40.4896,9.86719 40.0312,9.28906 C39.5729,8.71094 39.3438,7.94792 39.3438,7 C39.3438,6.05208 39.5729,5.28906 40.0312,4.71094 C40.4896,4.13281 41.0781,3.84375 41.7969,3.84375 C42.2448,3.84375 42.6276,3.92969 42.9453,4.10156 C43.263,4.27344 43.526,4.53646 43.7344,4.89062 M40.3594,7 C40.3594,7.72917 40.5104,8.29948 40.8125,8.71094 C41.1146,9.1224 41.526,9.32812 42.0469,9.32812 C42.5677,9.32812 42.9792,9.1224 43.2812,8.71094 C43.5833,8.29948 43.7344,7.72917 43.7344,7 C43.7344,6.27083 43.5833,5.70052 43.2812,5.28906 C42.9792,4.8776 42.5677,4.67188 42.0469,4.67188 C41.526,4.67188 41.1146,4.8776 40.8125,5.28906 C40.5104,5.70052 40.3594,6.27083 40.3594,7 "/>
</g>

<g fill="none" stroke="#000000" stroke-opacity="1" stroke-width="1" stroke-linecap="square" stroke-linejoin="bevel" transform="matrix(2,0,0,2,327.877,23)"
font-family="sans" font-size="11" font-weight="100" font-style="normal" 
>
</g>

<g fill="none" stroke="#000000" stroke-opacity="1" stroke-width="1" stroke-linecap="square" stroke-linejoin="bevel" transform="matrix(2,0,0,2,327.877,23)"
font-family="Ubuntu" font-size="11" font-weight="400" font-style="normal" 
>
</g>

<g fill="none" stroke="#000000" stroke-opacity="1" stroke-width="1" stroke-linecap="square" stroke-linejoin="bevel" transform="matrix(2,0,0,2,1.42109e-14,72)"
font-family="Ubuntu" font-size="11" font-weight="400" font-style="normal" 
>
</g>

<g fill="none" stroke="#000000" stroke-opacity="1" stroke-width="1" stroke-linecap="square" stroke-linejoin="bevel" transform="matrix(2,0,0,2,1.42109e-14,72)"
font-family="Ubuntu" font-size="11" font-weight="400" font-style="normal" 
>
</g>

<g fill="none" stroke="#000000" stroke-opacity="1" stroke-width="1" stroke-linecap="square" stroke-linejoin="bevel" transform="matrix(2,0,0,2,1.42109e-14,72)"
font-family="Ubuntu" font-size="11" font-weight="400" font-style="normal" 
>
</g>

<g fill="none" stroke="#000000" stroke-opacity="1" stroke-width="1" stroke-linecap="square" stroke-linejoin="round" transform="matrix(2,0,0,2,1.42109e-14,72)"
font-family="Ubuntu" font-size="11" font-weight="400" font-style="normal" 
>
<path vector-effect="none" fill-rule="evenodd" d="M96.52,-18 C108.81,-18 122.1,-18 134.57,-18 "/>
</g>

<g fill="none" stroke="#000000" stroke-opacity="1" stroke-width="1" stroke-linecap="square" stroke-linejoin="bevel" transform="matrix(2,0,0,2,1.42109e-14,72)"
font-family="Ubuntu" font-size="11" font-weight="400" font-style="normal" 
>
</g>

<g fill="none" stroke="#000000" stroke-opacity="1" stroke-width="1" stroke-linecap="square" stroke-linejoin="bevel" transform="matrix(2,0,0,2,209.271,8)"
font-family="Ubuntu" font-size="11" font-weight="400" font-style="normal" 
>
</g>

<g fill="none" stroke="#000000" stroke-opacity="1" stroke-width="1" stroke-linecap="square" stroke-linejoin="bevel" transform="matrix(2,0,0,2,209.271,8)"
font-family="sans" font-size="11" font-weight="100" font-style="normal" 
>
</g>

<g fill="#000000" fill-opacity="1" stroke="#000000" stroke-opacity="1" stroke-width="1" stroke-linecap="square" stroke-linejoin="round" transform="matrix(2,0,0,2,209.271,8)"
font-family="sans" font-size="11" font-weight="100" font-style="normal" 
>
<path vector-effect="none" fill-rule="nonzero" d="M2.79688,1.98438 L3.70312,1.98438 L0.90625,11.0156 L0,11.0156 L2.79688,1.98438 M9.0625,4.21875 L9.0625,5.14062 C8.79167,4.98438 8.51562,4.86719 8.23438,4.78906 C7.95312,4.71094 7.66667,4.67188 7.375,4.67188 C6.73958,4.67188 6.24479,4.875 5.89062,5.28125 C5.53646,5.6875 5.35938,6.26042 5.35938,7 C5.35938,7.72917 5.53646,8.29688 5.89062,8.70312 C6.24479,9.10938 6.73958,9.3125 7.375,9.3125 C7.66667,9.3125 7.95312,9.27604 8.23438,9.20312 C8.51562,9.13021 8.79167,9.01562 9.0625,8.85938 L9.0625,9.76562 C8.79167,9.90104 8.50781,10 8.21094,10.0625 C7.91406,10.125 7.59896,10.1562 7.26562,10.1562 C6.35938,10.1562 5.64062,9.8724 5.10938,9.30469 C4.57812,8.73698 4.3125,7.96875 4.3125,7 C4.3125,6.02083 4.58073,5.25 5.11719,4.6875 C5.65365,4.125 6.39062,3.84375 7.32812,3.84375 C7.64062,3.84375 7.9401,3.875 8.22656,3.9375 C8.51302,4 8.79167,4.09375 9.0625,4.21875 M13.2969,10.5625 C13.0156,11.2812 12.7422,11.7474 12.4766,11.9609 C12.2109,12.1745 11.8542,12.2812 11.4062,12.2812 L10.625,12.2812 L10.625,11.4688 L11.2031,11.4688 C11.474,11.4688 11.6849,11.4036 11.8359,11.2734 C11.987,11.1432 12.151,10.8385 12.3281,10.3594 L12.5156,9.90625 L10.0781,3.98438 L11.125,3.98438 L13,8.6875 L14.8906,3.98438 L15.9375,3.98438 L13.2969,10.5625 M21.6094,4.21875 L21.6094,5.14062 C21.3385,4.98438 21.0625,4.86719 20.7812,4.78906 C20.5,4.71094 20.2135,4.67188 19.9219,4.67188 C19.2865,4.67188 18.7917,4.875 18.4375,5.28125 C18.0833,5.6875 17.9062,6.26042 17.9062,7 C17.9062,7.72917 18.0833,8.29688 18.4375,8.70312 C18.7917,9.10938 19.2865,9.3125 19.9219,9.3125 C20.2135,9.3125 20.5,9.27604 20.7812,9.20312 C21.0625,9.13021 21.3385,9.01562 21.6094,8.85938 L21.6094,9.76562 C21.3385,9.90104 21.0547,10 20.7578,10.0625 C20.4609,10.125 20.1458,10.1562 19.8125,10.1562 C18.9062,10.1562 18.1875,9.8724 17.6562,9.30469 C17.125,8.73698 16.8594,7.96875 16.8594,7 C16.8594,6.02083 17.1276,5.25 17.6641,4.6875 C18.2005,4.125 18.9375,3.84375 19.875,3.84375 C20.1875,3.84375 20.487,3.875 20.7734,3.9375 C21.0599,4 21.3385,4.09375 21.6094,4.21875 M23.3281,1.64062 L24.3281,1.64062 L24.3281,10 L23.3281,10 L23.3281,1.64062 M31.5312,6.75 L31.5312,7.23438 L26.9844,7.23438 C27.026,7.91146 27.2292,8.42708 27.5938,8.78125 C27.9583,9.13542 28.4688,9.3125 29.125,9.3125 C29.5104,9.3125 29.8802,9.26562 30.2344,9.17188 C30.5885,9.07812 30.9427,8.94271 31.2969,8.76562 L31.2969,9.6875 C30.9427,9.84375 30.5781,9.96094 30.2031,10.0391 C29.8281,10.1172 29.4531,10.1562 29.0781,10.1562 C28.1094,10.1562 27.3464,9.8776 26.7891,9.32031 C26.2318,8.76302 25.9531,8.00521 25.9531,7.04688 C25.9531,6.06771 26.2188,5.28906 26.75,4.71094 C27.2812,4.13281 28,3.84375 28.9062,3.84375 C29.7083,3.84375 30.3464,4.10417 30.8203,4.625 C31.2943,5.14583 31.5312,5.85417 31.5312,6.75 M30.5312,6.45312 C30.5312,5.91146 30.3828,5.47917 30.0859,5.15625 C29.7891,4.83333 29.3958,4.67188 28.9062,4.67188 C28.3542,4.67188 27.9141,4.82812 27.5859,5.14062 C27.2578,5.45312 27.0677,5.89062 27.0156,6.45312 L30.5312,6.45312"/>
</g>

<g fill="none" stroke="#000000" stroke-opacity="1" stroke-width="1" stroke-linecap="square" stroke-linejoin="bevel" transform="matrix(2,0,0,2,209.271,8)"
font-family="sans" font-size="11" font-weight="100" font-style="normal" 
>
</g>

<g fill="none" stroke="#000000" stroke-opacity="1" stroke-width="1" stroke-linecap="square" stroke-linejoin="bevel" transform="matrix(2,0,0,2,209.271,8)"
font-family="Ubuntu" font-size="11" font-weight="400" font-style="normal" 
>
</g>

<g fill="none" stroke="#000000" stroke-opacity="1" stroke-width="1" stroke-linecap="square" stroke-linejoin="bevel" transform="matrix(2,0,0,2,1.42109e-14,72)"
font-family="Ubuntu" font-size="11" font-weight="400" font-style="normal" 
>
</g>

<g fill="#000000" fill-opacity="1" stroke="#000000" stroke-opacity="1" stroke-width="1" stroke-linecap="square" stroke-linejoin="round" transform="matrix(2,0,0,2,1.42109e-14,72)"
font-family="Ubuntu" font-size="11" font-weight="400" font-style="normal" 
>
<path vector-effect="none" fill-rule="evenodd" d="M134.57,-18 L134.57,-14.4125 L144.82,-18 L134.57,-21.5875 L134.57,-18"/>
</g>

<g fill="none" stroke="#000000" stroke-opacity="1" stroke-width="1" stroke-linecap="square" stroke-linejoin="bevel" transform="matrix(2,0,0,2,1.42109e-14,72)"
font-family="Ubuntu" font-size="11" font-weight="400" font-style="normal" 
>
</g>

<g fill="none" stroke="#000000" stroke-opacity="1" stroke-width="1" stroke-linecap="square" stroke-linejoin="bevel" transform="matrix(1,0,0,1,0,0)"
font-family="Ubuntu" font-size="11" font-weight="400" font-style="normal" 
>
</g>
</g>
</svg>
