<?xml version="1.0" encoding="UTF-8" standalone="no"?>
<svg width="311.856mm" height="106.539mm"
 xmlns="http://www.w3.org/2000/svg" xmlns:xlink="http://www.w3.org/1999/xlink"  version="1.2" baseProfile="tiny">
<title>Qt SVG Document</title>
<desc>Generated with Qt</desc>
<defs>
</defs>
<g fill="none" stroke="black" stroke-width="1" fill-rule="evenodd" stroke-linecap="square" stroke-linejoin="bevel" >

<g fill="none" stroke="#000000" stroke-opacity="1" stroke-width="1" stroke-linecap="square" stroke-linejoin="bevel" transform="matrix(1,0,0,1,0,0)"
font-family="Ubuntu" font-size="11" font-weight="400" font-style="normal" 
>
</g>

<g fill="none" stroke="#000000" stroke-opacity="1" stroke-width="1" stroke-linecap="square" stroke-linejoin="bevel" transform="matrix(1,0,0,1,0,0)"
font-family="Ubuntu" font-size="11" font-weight="400" font-style="normal" 
>
</g>

<g fill="none" stroke="#000000" stroke-opacity="1" stroke-width="1" stroke-linecap="square" stroke-linejoin="bevel" transform="matrix(2,0,0,2,1.42109e-14,302)"
font-family="Ubuntu" font-size="11" font-weight="400" font-style="normal" 
>
</g>

<g fill="#ffffff" fill-opacity="1" stroke="none" transform="matrix(2,0,0,2,1.42109e-14,302)"
font-family="Ubuntu" font-size="11" font-weight="400" font-style="normal" 
>
<rect x="-7.10543e-15" y="-151" width="441.974" height="151"/>
</g>

<g fill="none" stroke="#000000" stroke-opacity="1" stroke-width="1" stroke-linecap="square" stroke-linejoin="bevel" transform="matrix(2,0,0,2,1.42109e-14,302)"
font-family="Ubuntu" font-size="11" font-weight="400" font-style="normal" 
>
</g>

<g fill="none" stroke="#000000" stroke-opacity="1" stroke-width="1" stroke-linecap="square" stroke-linejoin="bevel" transform="matrix(2,0,0,2,1.42109e-14,302)"
font-family="Ubuntu" font-size="11" font-weight="400" font-style="normal" 
>
</g>

<g fill="none" stroke="#000000" stroke-opacity="1" stroke-width="1" stroke-linecap="square" stroke-linejoin="bevel" transform="matrix(2,0,0,2,1.42109e-14,302)"
font-family="Ubuntu" font-size="11" font-weight="400" font-style="normal" 
>
</g>

<g fill="none" stroke="#000000" stroke-opacity="1" stroke-width="1" stroke-linecap="square" stroke-linejoin="bevel" transform="matrix(2,0,0,2,1.42109e-14,302)"
font-family="Ubuntu" font-size="11" font-weight="400" font-style="normal" 
>
</g>

<g fill="none" stroke="#000000" stroke-opacity="1" stroke-width="1" stroke-linecap="square" stroke-linejoin="round" transform="matrix(2,0,0,2,1.42109e-14,302)"
font-family="Ubuntu" font-size="11" font-weight="400" font-style="normal" 
>
<ellipse cx="362.68" cy="-18" rx="78.7936" ry="17.5"/>
</g>

<g fill="none" stroke="#000000" stroke-opacity="1" stroke-width="1" stroke-linecap="square" stroke-linejoin="bevel" transform="matrix(2,0,0,2,1.42109e-14,302)"
font-family="Ubuntu" font-size="11" font-weight="400" font-style="normal" 
>
</g>

<g fill="none" stroke="#000000" stroke-opacity="1" stroke-width="1" stroke-linecap="square" stroke-linejoin="bevel" transform="matrix(2,0,0,2,622.829,253)"
font-family="Ubuntu" font-size="11" font-weight="400" font-style="normal" 
>
</g>

<g fill="none" stroke="#000000" stroke-opacity="1" stroke-width="1" stroke-linecap="square" stroke-linejoin="bevel" transform="matrix(2,0,0,2,622.829,253)"
font-family="sans" font-size="11" font-weight="100" font-style="normal" 
>
</g>

<g fill="#000000" fill-opacity="1" stroke="#000000" stroke-opacity="1" stroke-width="1" stroke-linecap="square" stroke-linejoin="round" transform="matrix(2,0,0,2,622.829,253)"
font-family="sans" font-size="11" font-weight="100" font-style="normal" 
>
<path vector-effect="none" fill-rule="nonzero" d="M2.79688,1.98438 L3.70312,1.98438 L0.90625,11.0156 L0,11.0156 L2.79688,1.98438 M8.57812,4.15625 L8.57812,5.09375 C8.29688,4.94792 8.00521,4.84115 7.70312,4.77344 C7.40104,4.70573 7.08854,4.67188 6.76562,4.67188 C6.27604,4.67188 5.90885,4.7474 5.66406,4.89844 C5.41927,5.04948 5.29688,5.27083 5.29688,5.5625 C5.29688,5.79167 5.38542,5.97135 5.5625,6.10156 C5.73958,6.23177 6.09375,6.35938 6.625,6.48438 L6.95312,6.5625 C7.66146,6.70833 8.16146,6.91927 8.45312,7.19531 C8.74479,7.47135 8.89062,7.85417 8.89062,8.34375 C8.89062,8.89583 8.67188,9.33594 8.23438,9.66406 C7.79688,9.99219 7.1875,10.1562 6.40625,10.1562 C6.08333,10.1562 5.7474,10.125 5.39844,10.0625 C5.04948,10 4.68229,9.90625 4.29688,9.78125 L4.29688,8.76562 C4.66146,8.95312 5.02083,9.09375 5.375,9.1875 C5.72917,9.28125 6.08333,9.32812 6.4375,9.32812 C6.89583,9.32812 7.25,9.2474 7.5,9.08594 C7.75,8.92448 7.875,8.70312 7.875,8.42188 C7.875,8.15104 7.78646,7.94271 7.60938,7.79688 C7.43229,7.65104 7.03646,7.51562 6.42188,7.39062 L6.07812,7.29688 C5.46354,7.17188 5.02083,6.97656 4.75,6.71094 C4.47917,6.44531 4.34375,6.07812 4.34375,5.60938 C4.34375,5.04688 4.54427,4.61198 4.94531,4.30469 C5.34635,3.9974 5.91667,3.84375 6.65625,3.84375 C7.02083,3.84375 7.36458,3.86979 7.6875,3.92188 C8.01042,3.97396 8.30729,4.05208 8.57812,4.15625 M10.3594,7.625 L10.3594,3.98438 L11.3438,3.98438 L11.3438,7.59375 C11.3438,8.15625 11.4557,8.58073 11.6797,8.86719 C11.9036,9.15365 12.2344,9.29688 12.6719,9.29688 C13.2135,9.29688 13.638,9.1276 13.9453,8.78906 C14.2526,8.45052 14.4062,7.98438 14.4062,7.39062 L14.4062,3.98438 L15.3906,3.98438 L15.3906,10 L14.4062,10 L14.4062,9.07812 C14.1667,9.44271 13.888,9.71354 13.5703,9.89062 C13.2526,10.0677 12.8854,10.1562 12.4688,10.1562 C11.7812,10.1562 11.2578,9.9401 10.8984,9.50781 C10.5391,9.07552 10.3594,8.44792 10.3594,7.625 M21.75,7 C21.75,6.27083 21.599,5.70052 21.2969,5.28906 C20.9948,4.8776 20.5833,4.67188 20.0625,4.67188 C19.5417,4.67188 19.1328,4.8776 18.8359,5.28906 C18.5391,5.70052 18.3906,6.27083 18.3906,7 C18.3906,7.72917 18.5391,8.29948 18.8359,8.71094 C19.1328,9.1224 19.5417,9.32812 20.0625,9.32812 C20.5833,9.32812 20.9948,9.1224 21.2969,8.71094 C21.599,8.29948 21.75,7.72917 21.75,7 M18.3906,4.89062 C18.5885,4.53646 18.8464,4.27344 19.1641,4.10156 C19.4818,3.92969 19.8646,3.84375 20.3125,3.84375 C21.0417,3.84375 21.6328,4.13281 22.0859,4.71094 C22.5391,5.28906 22.7656,6.05208 22.7656,7 C22.7656,7.94792 22.5391,8.71094 22.0859,9.28906 C21.6328,9.86719 21.0417,10.1562 20.3125,10.1562 C19.8646,10.1562 19.4818,10.0703 19.1641,9.89844 C18.8464,9.72656 18.5885,9.45833 18.3906,9.09375 L18.3906,10 L17.3906,10 L17.3906,1.64062 L18.3906,1.64062 L18.3906,4.89062 M28.9688,11.8281 L28.9688,12.5938 L23.25,12.5938 L23.25,11.8281 L28.9688,11.8281 M30.8594,9.09375 L30.8594,12.2812 L29.8594,12.2812 L29.8594,3.98438 L30.8594,3.98438 L30.8594,4.89062 C31.0573,4.53646 31.3151,4.27344 31.6328,4.10156 C31.9505,3.92969 32.3333,3.84375 32.7812,3.84375 C33.5104,3.84375 34.1016,4.13281 34.5547,4.71094 C35.0078,5.28906 35.2344,6.05208 35.2344,7 C35.2344,7.94792 35.0078,8.71094 34.5547,9.28906 C34.1016,9.86719 33.5104,10.1562 32.7812,10.1562 C32.3333,10.1562 31.9505,10.0703 31.6328,9.89844 C31.3151,9.72656 31.0573,9.45833 30.8594,9.09375 M34.2188,7 C34.2188,6.27083 34.0677,5.70052 33.7656,5.28906 C33.4635,4.8776 33.0521,4.67188 32.5312,4.67188 C32.0104,4.67188 31.6016,4.8776 31.3047,5.28906 C31.0078,5.70052 30.8594,6.27083 30.8594,7 C30.8594,7.72917 31.0078,8.29948 31.3047,8.71094 C31.6016,9.1224 32.0104,9.32812 32.5312,9.32812 C33.0521,9.32812 33.4635,9.1224 33.7656,8.71094 C34.0677,8.29948 34.2188,7.72917 34.2188,7 M41.1875,4.21875 L41.1875,5.14062 C40.9167,4.98438 40.6406,4.86719 40.3594,4.78906 C40.0781,4.71094 39.7917,4.67188 39.5,4.67188 C38.8646,4.67188 38.3698,4.875 38.0156,5.28125 C37.6615,5.6875 37.4844,6.26042 37.4844,7 C37.4844,7.72917 37.6615,8.29688 38.0156,8.70312 C38.3698,9.10938 38.8646,9.3125 39.5,9.3125 C39.7917,9.3125 40.0781,9.27604 40.3594,9.20312 C40.6406,9.13021 40.9167,9.01562 41.1875,8.85938 L41.1875,9.76562 C40.9167,9.90104 40.6328,10 40.3359,10.0625 C40.0391,10.125 39.724,10.1562 39.3906,10.1562 C38.4844,10.1562 37.7656,9.8724 37.2344,9.30469 C36.7031,8.73698 36.4375,7.96875 36.4375,7 C36.4375,6.02083 36.7057,5.25 37.2422,4.6875 C37.7786,4.125 38.5156,3.84375 39.4531,3.84375 C39.7656,3.84375 40.0651,3.875 40.3516,3.9375 C40.638,4 40.9167,4.09375 41.1875,4.21875 M42.9062,1.64062 L43.9062,1.64062 L43.9062,10 L42.9062,10 L42.9062,1.64062 M50.5312,11.8281 L50.5312,12.5938 L44.8125,12.5938 L44.8125,11.8281 L50.5312,11.8281 M50.75,3.98438 L51.7969,3.98438 L53.6719,9.03125 L55.5625,3.98438 L56.6094,3.98438 L54.3438,10 L53,10 L50.75,3.98438 M57.9531,3.98438 L58.9531,3.98438 L58.9531,10 L57.9531,10 L57.9531,3.98438 M57.9531,1.64062 L58.9531,1.64062 L58.9531,2.89062 L57.9531,2.89062 L57.9531,1.64062 M64.8438,4.15625 L64.8438,5.09375 C64.5625,4.94792 64.2708,4.84115 63.9688,4.77344 C63.6667,4.70573 63.3542,4.67188 63.0312,4.67188 C62.5417,4.67188 62.1745,4.7474 61.9297,4.89844 C61.6849,5.04948 61.5625,5.27083 61.5625,5.5625 C61.5625,5.79167 61.651,5.97135 61.8281,6.10156 C62.0052,6.23177 62.3594,6.35938 62.8906,6.48438 L63.2188,6.5625 C63.9271,6.70833 64.4271,6.91927 64.7188,7.19531 C65.0104,7.47135 65.1562,7.85417 65.1562,8.34375 C65.1562,8.89583 64.9375,9.33594 64.5,9.66406 C64.0625,9.99219 63.4531,10.1562 62.6719,10.1562 C62.349,10.1562 62.013,10.125 61.6641,10.0625 C61.3151,10 60.9479,9.90625 60.5625,9.78125 L60.5625,8.76562 C60.9271,8.95312 61.2865,9.09375 61.6406,9.1875 C61.9948,9.28125 62.349,9.32812 62.7031,9.32812 C63.1615,9.32812 63.5156,9.2474 63.7656,9.08594 C64.0156,8.92448 64.1406,8.70312 64.1406,8.42188 C64.1406,8.15104 64.0521,7.94271 63.875,7.79688 C63.6979,7.65104 63.3021,7.51562 62.6875,7.39062 L62.3438,7.29688 C61.7292,7.17188 61.2865,6.97656 61.0156,6.71094 C60.7448,6.44531 60.6094,6.07812 60.6094,5.60938 C60.6094,5.04688 60.8099,4.61198 61.2109,4.30469 C61.612,3.9974 62.1823,3.84375 62.9219,3.84375 C63.2865,3.84375 63.6302,3.86979 63.9531,3.92188 C64.276,3.97396 64.5729,4.05208 64.8438,4.15625 M66.625,7.625 L66.625,3.98438 L67.6094,3.98438 L67.6094,7.59375 C67.6094,8.15625 67.7214,8.58073 67.9453,8.86719 C68.1693,9.15365 68.5,9.29688 68.9375,9.29688 C69.4792,9.29688 69.9036,9.1276 70.2109,8.78906 C70.5182,8.45052 70.6719,7.98438 70.6719,7.39062 L70.6719,3.98438 L71.6562,3.98438 L71.6562,10 L70.6719,10 L70.6719,9.07812 C70.4323,9.44271 70.1536,9.71354 69.8359,9.89062 C69.5182,10.0677 69.151,10.1562 68.7344,10.1562 C68.0469,10.1562 67.5234,9.9401 67.1641,9.50781 C66.8047,9.07552 66.625,8.44792 66.625,7.625 M76.4219,6.96875 C75.6302,6.96875 75.0807,7.0625 74.7734,7.25 C74.4661,7.4375 74.3125,7.75 74.3125,8.1875 C74.3125,8.53125 74.4271,8.80729 74.6562,9.01562 C74.8854,9.22396 75.1979,9.32812 75.5938,9.32812 C76.1458,9.32812 76.5859,9.13281 76.9141,8.74219 C77.2422,8.35156 77.4062,7.83854 77.4062,7.20312 L77.4062,6.96875 L76.4219,6.96875 M78.3906,6.5625 L78.3906,10 L77.4062,10 L77.4062,9.09375 C77.1875,9.45833 76.9089,9.72656 76.5703,9.89844 C76.2318,10.0703 75.8177,10.1562 75.3281,10.1562 C74.7135,10.1562 74.224,9.98438 73.8594,9.64062 C73.4948,9.29688 73.3125,8.83333 73.3125,8.25 C73.3125,7.57292 73.5391,7.0625 73.9922,6.71875 C74.4453,6.375 75.125,6.20312 76.0312,6.20312 L77.4062,6.20312 L77.4062,6.10938 C77.4062,5.65104 77.2578,5.29688 76.9609,5.04688 C76.6641,4.79688 76.2448,4.67188 75.7031,4.67188 C75.3594,4.67188 75.0234,4.71354 74.6953,4.79688 C74.3672,4.88021 74.0521,5.00521 73.75,5.17188 L73.75,4.26562 C74.1146,4.11979 74.4688,4.01302 74.8125,3.94531 C75.1562,3.8776 75.4844,3.84375 75.7969,3.84375 C76.6719,3.84375 77.3229,4.06771 77.75,4.51562 C78.1771,4.96354 78.3906,5.64583 78.3906,6.5625 M80.4219,1.64062 L81.4219,1.64062 L81.4219,10 L80.4219,10 L80.4219,1.64062 M83.4688,3.98438 L84.4688,3.98438 L84.4688,10 L83.4688,10 L83.4688,3.98438 M83.4688,1.64062 L84.4688,1.64062 L84.4688,2.89062 L83.4688,2.89062 L83.4688,1.64062 M86.0938,3.98438 L90.7812,3.98438 L90.7812,4.89062 L87.0625,9.20312 L90.7812,9.20312 L90.7812,10 L85.9531,10 L85.9531,9.09375 L89.6719,4.78125 L86.0938,4.78125 L86.0938,3.98438 M97.4375,6.75 L97.4375,7.23438 L92.8906,7.23438 C92.9323,7.91146 93.1354,8.42708 93.5,8.78125 C93.8646,9.13542 94.375,9.3125 95.0312,9.3125 C95.4167,9.3125 95.7865,9.26562 96.1406,9.17188 C96.4948,9.07812 96.849,8.94271 97.2031,8.76562 L97.2031,9.6875 C96.849,9.84375 96.4844,9.96094 96.1094,10.0391 C95.7344,10.1172 95.3594,10.1562 94.9844,10.1562 C94.0156,10.1562 93.2526,9.8776 92.6953,9.32031 C92.138,8.76302 91.8594,8.00521 91.8594,7.04688 C91.8594,6.06771 92.125,5.28906 92.6562,4.71094 C93.1875,4.13281 93.9062,3.84375 94.8125,3.84375 C95.6146,3.84375 96.2526,4.10417 96.7266,4.625 C97.2005,5.14583 97.4375,5.85417 97.4375,6.75 M96.4375,6.45312 C96.4375,5.91146 96.2891,5.47917 95.9922,5.15625 C95.6953,4.83333 95.3021,4.67188 94.8125,4.67188 C94.2604,4.67188 93.8203,4.82812 93.4922,5.14062 C93.1641,5.45312 92.974,5.89062 92.9219,6.45312 L96.4375,6.45312 M102.531,4.90625 C102.427,4.84375 102.31,4.79688 102.18,4.76562 C102.049,4.73438 101.906,4.71875 101.75,4.71875 C101.188,4.71875 100.758,4.90104 100.461,5.26562 C100.164,5.63021 100.016,6.15104 100.016,6.82812 L100.016,10 L99.0156,10 L99.0156,3.98438 L100.016,3.98438 L100.016,4.92188 C100.214,4.55729 100.479,4.28646 100.812,4.10938 C101.146,3.93229 101.552,3.84375 102.031,3.84375 C102.104,3.84375 102.18,3.84635 102.258,3.85156 C102.336,3.85677 102.427,3.86979 102.531,3.89062 L102.531,4.90625"/>
</g>

<g fill="none" stroke="#000000" stroke-opacity="1" stroke-width="1" stroke-linecap="square" stroke-linejoin="bevel" transform="matrix(2,0,0,2,622.829,253)"
font-family="sans" font-size="11" font-weight="100" font-style="normal" 
>
</g>

<g fill="none" stroke="#000000" stroke-opacity="1" stroke-width="1" stroke-linecap="square" stroke-linejoin="bevel" transform="matrix(2,0,0,2,622.829,253)"
font-family="Ubuntu" font-size="11" font-weight="400" font-style="normal" 
>
</g>

<g fill="none" stroke="#000000" stroke-opacity="1" stroke-width="1" stroke-linecap="square" stroke-linejoin="bevel" transform="matrix(2,0,0,2,1.42109e-14,302)"
font-family="Ubuntu" font-size="11" font-weight="400" font-style="normal" 
>
</g>

<g fill="none" stroke="#000000" stroke-opacity="1" stroke-width="1" stroke-linecap="square" stroke-linejoin="bevel" transform="matrix(2,0,0,2,1.42109e-14,302)"
font-family="Ubuntu" font-size="11" font-weight="400" font-style="normal" 
>
</g>

<g fill="none" stroke="#000000" stroke-opacity="1" stroke-width="1" stroke-linecap="square" stroke-linejoin="bevel" transform="matrix(2,0,0,2,1.42109e-14,302)"
font-family="Ubuntu" font-size="11" font-weight="400" font-style="normal" 
>
</g>

<g fill="none" stroke="#000000" stroke-opacity="1" stroke-width="1" stroke-linecap="square" stroke-linejoin="round" transform="matrix(2,0,0,2,1.42109e-14,302)"
font-family="Ubuntu" font-size="11" font-weight="400" font-style="normal" 
>
<ellipse cx="48.096" cy="-117" rx="47.596" ry="17.5"/>
</g>

<g fill="none" stroke="#000000" stroke-opacity="1" stroke-width="1" stroke-linecap="square" stroke-linejoin="bevel" transform="matrix(2,0,0,2,1.42109e-14,302)"
font-family="Ubuntu" font-size="11" font-weight="400" font-style="normal" 
>
</g>

<g fill="none" stroke="#000000" stroke-opacity="1" stroke-width="1" stroke-linecap="square" stroke-linejoin="bevel" transform="matrix(2,0,0,2,38.9264,55)"
font-family="Ubuntu" font-size="11" font-weight="400" font-style="normal" 
>
</g>

<g fill="none" stroke="#000000" stroke-opacity="1" stroke-width="1" stroke-linecap="square" stroke-linejoin="bevel" transform="matrix(2,0,0,2,38.9264,55)"
font-family="sans" font-size="11" font-weight="100" font-style="normal" 
>
</g>

<g fill="#000000" fill-opacity="1" stroke="#000000" stroke-opacity="1" stroke-width="1" stroke-linecap="square" stroke-linejoin="round" transform="matrix(2,0,0,2,38.9264,55)"
font-family="sans" font-size="11" font-weight="100" font-style="normal" 
>
<path vector-effect="none" fill-rule="nonzero" d="M2.79688,1.98438 L3.70312,1.98438 L0.90625,11.0156 L0,11.0156 L2.79688,1.98438 M4.64062,7.625 L4.64062,3.98438 L5.625,3.98438 L5.625,7.59375 C5.625,8.15625 5.73698,8.58073 5.96094,8.86719 C6.1849,9.15365 6.51562,9.29688 6.95312,9.29688 C7.49479,9.29688 7.91927,9.1276 8.22656,8.78906 C8.53385,8.45052 8.6875,7.98438 8.6875,7.39062 L8.6875,3.98438 L9.67188,3.98438 L9.67188,10 L8.6875,10 L8.6875,9.07812 C8.44792,9.44271 8.16927,9.71354 7.85156,9.89062 C7.53385,10.0677 7.16667,10.1562 6.75,10.1562 C6.0625,10.1562 5.53906,9.9401 5.17969,9.50781 C4.82031,9.07552 4.64062,8.44792 4.64062,7.625 M15.5469,4.15625 L15.5469,5.09375 C15.2656,4.94792 14.974,4.84115 14.6719,4.77344 C14.3698,4.70573 14.0573,4.67188 13.7344,4.67188 C13.2448,4.67188 12.8776,4.7474 12.6328,4.89844 C12.388,5.04948 12.2656,5.27083 12.2656,5.5625 C12.2656,5.79167 12.3542,5.97135 12.5312,6.10156 C12.7083,6.23177 13.0625,6.35938 13.5938,6.48438 L13.9219,6.5625 C14.6302,6.70833 15.1302,6.91927 15.4219,7.19531 C15.7135,7.47135 15.8594,7.85417 15.8594,8.34375 C15.8594,8.89583 15.6406,9.33594 15.2031,9.66406 C14.7656,9.99219 14.1562,10.1562 13.375,10.1562 C13.0521,10.1562 12.7161,10.125 12.3672,10.0625 C12.0182,10 11.651,9.90625 11.2656,9.78125 L11.2656,8.76562 C11.6302,8.95312 11.9896,9.09375 12.3438,9.1875 C12.6979,9.28125 13.0521,9.32812 13.4062,9.32812 C13.8646,9.32812 14.2188,9.2474 14.4688,9.08594 C14.7188,8.92448 14.8438,8.70312 14.8438,8.42188 C14.8438,8.15104 14.7552,7.94271 14.5781,7.79688 C14.401,7.65104 14.0052,7.51562 13.3906,7.39062 L13.0469,7.29688 C12.4323,7.17188 11.9896,6.97656 11.7188,6.71094 C11.4479,6.44531 11.3125,6.07812 11.3125,5.60938 C11.3125,5.04688 11.513,4.61198 11.9141,4.30469 C12.3151,3.9974 12.8854,3.84375 13.625,3.84375 C13.9896,3.84375 14.3333,3.86979 14.6562,3.92188 C14.9792,3.97396 15.276,4.05208 15.5469,4.15625 M21.75,7 C21.75,6.27083 21.599,5.70052 21.2969,5.28906 C20.9948,4.8776 20.5833,4.67188 20.0625,4.67188 C19.5417,4.67188 19.1328,4.8776 18.8359,5.28906 C18.5391,5.70052 18.3906,6.27083 18.3906,7 C18.3906,7.72917 18.5391,8.29948 18.8359,8.71094 C19.1328,9.1224 19.5417,9.32812 20.0625,9.32812 C20.5833,9.32812 20.9948,9.1224 21.2969,8.71094 C21.599,8.29948 21.75,7.72917 21.75,7 M18.3906,4.89062 C18.5885,4.53646 18.8464,4.27344 19.1641,4.10156 C19.4818,3.92969 19.8646,3.84375 20.3125,3.84375 C21.0417,3.84375 21.6328,4.13281 22.0859,4.71094 C22.5391,5.28906 22.7656,6.05208 22.7656,7 C22.7656,7.94792 22.5391,8.71094 22.0859,9.28906 C21.6328,9.86719 21.0417,10.1562 20.3125,10.1562 C19.8646,10.1562 19.4818,10.0703 19.1641,9.89844 C18.8464,9.72656 18.5885,9.45833 18.3906,9.09375 L18.3906,10 L17.3906,10 L17.3906,1.64062 L18.3906,1.64062 L18.3906,4.89062 M28.9688,11.8281 L28.9688,12.5938 L23.25,12.5938 L23.25,11.8281 L28.9688,11.8281 M34.2188,4.21875 L34.2188,5.14062 C33.9479,4.98438 33.6719,4.86719 33.3906,4.78906 C33.1094,4.71094 32.8229,4.67188 32.5312,4.67188 C31.8958,4.67188 31.401,4.875 31.0469,5.28125 C30.6927,5.6875 30.5156,6.26042 30.5156,7 C30.5156,7.72917 30.6927,8.29688 31.0469,8.70312 C31.401,9.10938 31.8958,9.3125 32.5312,9.3125 C32.8229,9.3125 33.1094,9.27604 33.3906,9.20312 C33.6719,9.13021 33.9479,9.01562 34.2188,8.85938 L34.2188,9.76562 C33.9479,9.90104 33.6641,10 33.3672,10.0625 C33.0703,10.125 32.7552,10.1562 32.4219,10.1562 C31.5156,10.1562 30.7969,9.8724 30.2656,9.30469 C29.7344,8.73698 29.4688,7.96875 29.4688,7 C29.4688,6.02083 29.737,5.25 30.2734,4.6875 C30.8099,4.125 31.5469,3.84375 32.4844,3.84375 C32.7969,3.84375 33.0964,3.875 33.3828,3.9375 C33.6693,4 33.9479,4.09375 34.2188,4.21875 M38.4531,10.5625 C38.1719,11.2812 37.8984,11.7474 37.6328,11.9609 C37.3672,12.1745 37.0104,12.2812 36.5625,12.2812 L35.7812,12.2812 L35.7812,11.4688 L36.3594,11.4688 C36.6302,11.4688 36.8411,11.4036 36.9922,11.2734 C37.1432,11.1432 37.3073,10.8385 37.4844,10.3594 L37.6719,9.90625 L35.2344,3.98438 L36.2812,3.98438 L38.1562,8.6875 L40.0469,3.98438 L41.0938,3.98438 L38.4531,10.5625 M46.7656,4.21875 L46.7656,5.14062 C46.4948,4.98438 46.2188,4.86719 45.9375,4.78906 C45.6562,4.71094 45.3698,4.67188 45.0781,4.67188 C44.4427,4.67188 43.9479,4.875 43.5938,5.28125 C43.2396,5.6875 43.0625,6.26042 43.0625,7 C43.0625,7.72917 43.2396,8.29688 43.5938,8.70312 C43.9479,9.10938 44.4427,9.3125 45.0781,9.3125 C45.3698,9.3125 45.6562,9.27604 45.9375,9.20312 C46.2188,9.13021 46.4948,9.01562 46.7656,8.85938 L46.7656,9.76562 C46.4948,9.90104 46.2109,10 45.9141,10.0625 C45.6172,10.125 45.3021,10.1562 44.9688,10.1562 C44.0625,10.1562 43.3438,9.8724 42.8125,9.30469 C42.2812,8.73698 42.0156,7.96875 42.0156,7 C42.0156,6.02083 42.2839,5.25 42.8203,4.6875 C43.3568,4.125 44.0938,3.84375 45.0312,3.84375 C45.3438,3.84375 45.6432,3.875 45.9297,3.9375 C46.2161,4 46.4948,4.09375 46.7656,4.21875 M48.4844,1.64062 L49.4844,1.64062 L49.4844,10 L48.4844,10 L48.4844,1.64062 M56.6875,6.75 L56.6875,7.23438 L52.1406,7.23438 C52.1823,7.91146 52.3854,8.42708 52.75,8.78125 C53.1146,9.13542 53.625,9.3125 54.2812,9.3125 C54.6667,9.3125 55.0365,9.26562 55.3906,9.17188 C55.7448,9.07812 56.099,8.94271 56.4531,8.76562 L56.4531,9.6875 C56.099,9.84375 55.7344,9.96094 55.3594,10.0391 C54.9844,10.1172 54.6094,10.1562 54.2344,10.1562 C53.2656,10.1562 52.5026,9.8776 51.9453,9.32031 C51.388,8.76302 51.1094,8.00521 51.1094,7.04688 C51.1094,6.06771 51.375,5.28906 51.9062,4.71094 C52.4375,4.13281 53.1562,3.84375 54.0625,3.84375 C54.8646,3.84375 55.5026,4.10417 55.9766,4.625 C56.4505,5.14583 56.6875,5.85417 56.6875,6.75 M55.6875,6.45312 C55.6875,5.91146 55.5391,5.47917 55.2422,5.15625 C54.9453,4.83333 54.5521,4.67188 54.0625,4.67188 C53.5104,4.67188 53.0703,4.82812 52.7422,5.14062 C52.4141,5.45312 52.224,5.89062 52.1719,6.45312 L55.6875,6.45312"/>
</g>

<g fill="none" stroke="#000000" stroke-opacity="1" stroke-width="1" stroke-linecap="square" stroke-linejoin="bevel" transform="matrix(2,0,0,2,38.9264,55)"
font-family="sans" font-size="11" font-weight="100" font-style="normal" 
>
</g>

<g fill="none" stroke="#000000" stroke-opacity="1" stroke-width="1" stroke-linecap="square" stroke-linejoin="bevel" transform="matrix(2,0,0,2,38.9264,55)"
font-family="Ubuntu" font-size="11" font-weight="400" font-style="normal" 
>
</g>

<g fill="none" stroke="#000000" stroke-opacity="1" stroke-width="1" stroke-linecap="square" stroke-linejoin="bevel" transform="matrix(2,0,0,2,1.42109e-14,302)"
font-family="Ubuntu" font-size="11" font-weight="400" font-style="normal" 
>
</g>

<g fill="none" stroke="#000000" stroke-opacity="1" stroke-width="1" stroke-linecap="square" stroke-linejoin="bevel" transform="matrix(2,0,0,2,1.42109e-14,302)"
font-family="Ubuntu" font-size="11" font-weight="400" font-style="normal" 
>
</g>

<g fill="none" stroke="#000000" stroke-opacity="1" stroke-width="1" stroke-linecap="square" stroke-linejoin="bevel" transform="matrix(2,0,0,2,1.42109e-14,302)"
font-family="Ubuntu" font-size="11" font-weight="400" font-style="normal" 
>
</g>

<g fill="none" stroke="#000000" stroke-opacity="1" stroke-width="1" stroke-linecap="square" stroke-linejoin="round" transform="matrix(2,0,0,2,1.42109e-14,302)"
font-family="Ubuntu" font-size="11" font-weight="400" font-style="normal" 
>
<ellipse cx="362.68" cy="-133" rx="52.1464" ry="17.5"/>
</g>

<g fill="none" stroke="#000000" stroke-opacity="1" stroke-width="1" stroke-linecap="square" stroke-linejoin="bevel" transform="matrix(2,0,0,2,1.42109e-14,302)"
font-family="Ubuntu" font-size="11" font-weight="400" font-style="normal" 
>
</g>

<g fill="none" stroke="#000000" stroke-opacity="1" stroke-width="1" stroke-linecap="square" stroke-linejoin="bevel" transform="matrix(2,0,0,2,660.641,23)"
font-family="Ubuntu" font-size="11" font-weight="400" font-style="normal" 
>
</g>

<g fill="none" stroke="#000000" stroke-opacity="1" stroke-width="1" stroke-linecap="square" stroke-linejoin="bevel" transform="matrix(2,0,0,2,660.641,23)"
font-family="sans" font-size="11" font-weight="100" font-style="normal" 
>
</g>

<g fill="#000000" fill-opacity="1" stroke="#000000" stroke-opacity="1" stroke-width="1" stroke-linecap="square" stroke-linejoin="round" transform="matrix(2,0,0,2,660.641,23)"
font-family="sans" font-size="11" font-weight="100" font-style="normal" 
>
<path vector-effect="none" fill-rule="nonzero" d="M2.79688,1.98438 L3.70312,1.98438 L0.90625,11.0156 L0,11.0156 L2.79688,1.98438 M5.70312,9.09375 L5.70312,12.2812 L4.70312,12.2812 L4.70312,3.98438 L5.70312,3.98438 L5.70312,4.89062 C5.90104,4.53646 6.15885,4.27344 6.47656,4.10156 C6.79427,3.92969 7.17708,3.84375 7.625,3.84375 C8.35417,3.84375 8.94531,4.13281 9.39844,4.71094 C9.85156,5.28906 10.0781,6.05208 10.0781,7 C10.0781,7.94792 9.85156,8.71094 9.39844,9.28906 C8.94531,9.86719 8.35417,10.1562 7.625,10.1562 C7.17708,10.1562 6.79427,10.0703 6.47656,9.89844 C6.15885,9.72656 5.90104,9.45833 5.70312,9.09375 M9.0625,7 C9.0625,6.27083 8.91146,5.70052 8.60938,5.28906 C8.30729,4.8776 7.89583,4.67188 7.375,4.67188 C6.85417,4.67188 6.44531,4.8776 6.14844,5.28906 C5.85156,5.70052 5.70312,6.27083 5.70312,7 C5.70312,7.72917 5.85156,8.29948 6.14844,8.71094 C6.44531,9.1224 6.85417,9.32812 7.375,9.32812 C7.89583,9.32812 8.30729,9.1224 8.60938,8.71094 C8.91146,8.29948 9.0625,7.72917 9.0625,7 M16.0312,4.21875 L16.0312,5.14062 C15.7604,4.98438 15.4844,4.86719 15.2031,4.78906 C14.9219,4.71094 14.6354,4.67188 14.3438,4.67188 C13.7083,4.67188 13.2135,4.875 12.8594,5.28125 C12.5052,5.6875 12.3281,6.26042 12.3281,7 C12.3281,7.72917 12.5052,8.29688 12.8594,8.70312 C13.2135,9.10938 13.7083,9.3125 14.3438,9.3125 C14.6354,9.3125 14.9219,9.27604 15.2031,9.20312 C15.4844,9.13021 15.7604,9.01562 16.0312,8.85938 L16.0312,9.76562 C15.7604,9.90104 15.4766,10 15.1797,10.0625 C14.8828,10.125 14.5677,10.1562 14.2344,10.1562 C13.3281,10.1562 12.6094,9.8724 12.0781,9.30469 C11.5469,8.73698 11.2812,7.96875 11.2812,7 C11.2812,6.02083 11.5495,5.25 12.0859,4.6875 C12.6224,4.125 13.3594,3.84375 14.2969,3.84375 C14.6094,3.84375 14.9089,3.875 15.1953,3.9375 C15.4818,4 15.7604,4.09375 16.0312,4.21875 M21.7188,4.89062 L21.7188,1.64062 L22.7031,1.64062 L22.7031,10 L21.7188,10 L21.7188,9.09375 C21.5104,9.45833 21.2474,9.72656 20.9297,9.89844 C20.612,10.0703 20.2292,10.1562 19.7812,10.1562 C19.0625,10.1562 18.474,9.86719 18.0156,9.28906 C17.5573,8.71094 17.3281,7.94792 17.3281,7 C17.3281,6.05208 17.5573,5.28906 18.0156,4.71094 C18.474,4.13281 19.0625,3.84375 19.7812,3.84375 C20.2292,3.84375 20.612,3.92969 20.9297,4.10156 C21.2474,4.27344 21.5104,4.53646 21.7188,4.89062 M18.3438,7 C18.3438,7.72917 18.4948,8.29948 18.7969,8.71094 C19.099,9.1224 19.5104,9.32812 20.0312,9.32812 C20.5521,9.32812 20.9635,9.1224 21.2656,8.71094 C21.5677,8.29948 21.7188,7.72917 21.7188,7 C21.7188,6.27083 21.5677,5.70052 21.2656,5.28906 C20.9635,4.8776 20.5521,4.67188 20.0312,4.67188 C19.5104,4.67188 19.099,4.8776 18.7969,5.28906 C18.4948,5.70052 18.3438,6.27083 18.3438,7 M29.2969,11.8281 L29.2969,12.5938 L23.5781,12.5938 L23.5781,11.8281 L29.2969,11.8281 M33.7031,4.90625 C33.599,4.84375 33.4818,4.79688 33.3516,4.76562 C33.2214,4.73438 33.0781,4.71875 32.9219,4.71875 C32.3594,4.71875 31.9297,4.90104 31.6328,5.26562 C31.3359,5.63021 31.1875,6.15104 31.1875,6.82812 L31.1875,10 L30.1875,10 L30.1875,3.98438 L31.1875,3.98438 L31.1875,4.92188 C31.3854,4.55729 31.651,4.28646 31.9844,4.10938 C32.3177,3.93229 32.724,3.84375 33.2031,3.84375 C33.276,3.84375 33.3516,3.84635 33.4297,3.85156 C33.5078,3.85677 33.599,3.86979 33.7031,3.89062 L33.7031,4.90625 M39.8906,6.75 L39.8906,7.23438 L35.3438,7.23438 C35.3854,7.91146 35.5885,8.42708 35.9531,8.78125 C36.3177,9.13542 36.8281,9.3125 37.4844,9.3125 C37.8698,9.3125 38.2396,9.26562 38.5938,9.17188 C38.9479,9.07812 39.3021,8.94271 39.6562,8.76562 L39.6562,9.6875 C39.3021,9.84375 38.9375,9.96094 38.5625,10.0391 C38.1875,10.1172 37.8125,10.1562 37.4375,10.1562 C36.4688,10.1562 35.7057,9.8776 35.1484,9.32031 C34.5911,8.76302 34.3125,8.00521 34.3125,7.04688 C34.3125,6.06771 34.5781,5.28906 35.1094,4.71094 C35.6406,4.13281 36.3594,3.84375 37.2656,3.84375 C38.0677,3.84375 38.7057,4.10417 39.1797,4.625 C39.6536,5.14583 39.8906,5.85417 39.8906,6.75 M38.8906,6.45312 C38.8906,5.91146 38.7422,5.47917 38.4453,5.15625 C38.1484,4.83333 37.7552,4.67188 37.2656,4.67188 C36.7135,4.67188 36.2734,4.82812 35.9453,5.14062 C35.6172,5.45312 35.4271,5.89062 35.375,6.45312 L38.8906,6.45312 M45.8281,4.21875 L45.8281,5.14062 C45.5573,4.98438 45.2812,4.86719 45,4.78906 C44.7188,4.71094 44.4323,4.67188 44.1406,4.67188 C43.5052,4.67188 43.0104,4.875 42.6562,5.28125 C42.3021,5.6875 42.125,6.26042 42.125,7 C42.125,7.72917 42.3021,8.29688 42.6562,8.70312 C43.0104,9.10938 43.5052,9.3125 44.1406,9.3125 C44.4323,9.3125 44.7188,9.27604 45,9.20312 C45.2812,9.13021 45.5573,9.01562 45.8281,8.85938 L45.8281,9.76562 C45.5573,9.90104 45.2734,10 44.9766,10.0625 C44.6797,10.125 44.3646,10.1562 44.0312,10.1562 C43.125,10.1562 42.4062,9.8724 41.875,9.30469 C41.3438,8.73698 41.0781,7.96875 41.0781,7 C41.0781,6.02083 41.3464,5.25 41.8828,4.6875 C42.4193,4.125 43.1562,3.84375 44.0938,3.84375 C44.4062,3.84375 44.7057,3.875 44.9922,3.9375 C45.2786,4 45.5573,4.09375 45.8281,4.21875 M49.8906,4.67188 C49.3594,4.67188 48.9401,4.88021 48.6328,5.29688 C48.3255,5.71354 48.1719,6.28125 48.1719,7 C48.1719,7.71875 48.3229,8.28385 48.625,8.69531 C48.9271,9.10677 49.349,9.3125 49.8906,9.3125 C50.4115,9.3125 50.8255,9.10677 51.1328,8.69531 C51.4401,8.28385 51.5938,7.71875 51.5938,7 C51.5938,6.28125 51.4401,5.71354 51.1328,5.29688 C50.8255,4.88021 50.4115,4.67188 49.8906,4.67188 M49.8906,3.84375 C50.7448,3.84375 51.4167,4.1224 51.9062,4.67969 C52.3958,5.23698 52.6406,6.01042 52.6406,7 C52.6406,7.97917 52.3958,8.75 51.9062,9.3125 C51.4167,9.875 50.7448,10.1562 49.8906,10.1562 C49.026,10.1562 48.349,9.875 47.8594,9.3125 C47.3698,8.75 47.125,7.97917 47.125,7 C47.125,6.01042 47.3698,5.23698 47.8594,4.67969 C48.349,4.1224 49.026,3.84375 49.8906,3.84375 M57.75,4.90625 C57.6458,4.84375 57.5286,4.79688 57.3984,4.76562 C57.2682,4.73438 57.125,4.71875 56.9688,4.71875 C56.4062,4.71875 55.9766,4.90104 55.6797,5.26562 C55.3828,5.63021 55.2344,6.15104 55.2344,6.82812 L55.2344,10 L54.2344,10 L54.2344,3.98438 L55.2344,3.98438 L55.2344,4.92188 C55.4323,4.55729 55.6979,4.28646 56.0312,4.10938 C56.3646,3.93229 56.7708,3.84375 57.25,3.84375 C57.3229,3.84375 57.3984,3.84635 57.4766,3.85156 C57.5547,3.85677 57.6458,3.86979 57.75,3.89062 L57.75,4.90625 M62.75,4.89062 L62.75,1.64062 L63.7344,1.64062 L63.7344,10 L62.75,10 L62.75,9.09375 C62.5417,9.45833 62.2786,9.72656 61.9609,9.89844 C61.6432,10.0703 61.2604,10.1562 60.8125,10.1562 C60.0938,10.1562 59.5052,9.86719 59.0469,9.28906 C58.5885,8.71094 58.3594,7.94792 58.3594,7 C58.3594,6.05208 58.5885,5.28906 59.0469,4.71094 C59.5052,4.13281 60.0938,3.84375 60.8125,3.84375 C61.2604,3.84375 61.6432,3.92969 61.9609,4.10156 C62.2786,4.27344 62.5417,4.53646 62.75,4.89062 M59.375,7 C59.375,7.72917 59.526,8.29948 59.8281,8.71094 C60.1302,9.1224 60.5417,9.32812 61.0625,9.32812 C61.5833,9.32812 61.9948,9.1224 62.2969,8.71094 C62.599,8.29948 62.75,7.72917 62.75,7 C62.75,6.27083 62.599,5.70052 62.2969,5.28906 C61.9948,4.8776 61.5833,4.67188 61.0625,4.67188 C60.5417,4.67188 60.1302,4.8776 59.8281,5.28906 C59.526,5.70052 59.375,6.27083 59.375,7 "/>
</g>

<g fill="none" stroke="#000000" stroke-opacity="1" stroke-width="1" stroke-linecap="square" stroke-linejoin="bevel" transform="matrix(2,0,0,2,660.641,23)"
font-family="sans" font-size="11" font-weight="100" font-style="normal" 
>
</g>

<g fill="none" stroke="#000000" stroke-opacity="1" stroke-width="1" stroke-linecap="square" stroke-linejoin="bevel" transform="matrix(2,0,0,2,660.641,23)"
font-family="Ubuntu" font-size="11" font-weight="400" font-style="normal" 
>
</g>

<g fill="none" stroke="#000000" stroke-opacity="1" stroke-width="1" stroke-linecap="square" stroke-linejoin="bevel" transform="matrix(2,0,0,2,1.42109e-14,302)"
font-family="Ubuntu" font-size="11" font-weight="400" font-style="normal" 
>
</g>

<g fill="none" stroke="#000000" stroke-opacity="1" stroke-width="1" stroke-linecap="square" stroke-linejoin="bevel" transform="matrix(2,0,0,2,1.42109e-14,302)"
font-family="Ubuntu" font-size="11" font-weight="400" font-style="normal" 
>
</g>

<g fill="none" stroke="#000000" stroke-opacity="1" stroke-width="1" stroke-linecap="square" stroke-linejoin="bevel" transform="matrix(2,0,0,2,1.42109e-14,302)"
font-family="Ubuntu" font-size="11" font-weight="400" font-style="normal" 
>
</g>

<g fill="none" stroke="#000000" stroke-opacity="1" stroke-width="1" stroke-linecap="square" stroke-linejoin="round" transform="matrix(2,0,0,2,1.42109e-14,302)"
font-family="Ubuntu" font-size="11" font-weight="400" font-style="normal" 
>
<ellipse cx="186.79" cy="-79" rx="41.098" ry="17.5"/>
</g>

<g fill="none" stroke="#000000" stroke-opacity="1" stroke-width="1" stroke-linecap="square" stroke-linejoin="bevel" transform="matrix(2,0,0,2,1.42109e-14,302)"
font-family="Ubuntu" font-size="11" font-weight="400" font-style="normal" 
>
</g>

<g fill="none" stroke="#000000" stroke-opacity="1" stroke-width="1" stroke-linecap="square" stroke-linejoin="bevel" transform="matrix(2,0,0,2,327.877,131)"
font-family="Ubuntu" font-size="11" font-weight="400" font-style="normal" 
>
</g>

<g fill="none" stroke="#000000" stroke-opacity="1" stroke-width="1" stroke-linecap="square" stroke-linejoin="bevel" transform="matrix(2,0,0,2,327.877,131)"
font-family="sans" font-size="11" font-weight="100" font-style="normal" 
>
</g>

<g fill="#000000" fill-opacity="1" stroke="#000000" stroke-opacity="1" stroke-width="1" stroke-linecap="square" stroke-linejoin="round" transform="matrix(2,0,0,2,327.877,131)"
font-family="sans" font-size="11" font-weight="100" font-style="normal" 
>
<path vector-effect="none" fill-rule="nonzero" d="M2.79688,1.98438 L3.70312,1.98438 L0.90625,11.0156 L0,11.0156 L2.79688,1.98438 M4.03125,3.98438 L5.07812,3.98438 L6.95312,9.03125 L8.84375,3.98438 L9.89062,3.98438 L7.625,10 L6.28125,10 L4.03125,3.98438 M11.2344,1.64062 L12.2344,1.64062 L12.2344,10 L11.2344,10 L11.2344,1.64062 M15.25,9.09375 L15.25,12.2812 L14.25,12.2812 L14.25,3.98438 L15.25,3.98438 L15.25,4.89062 C15.4479,4.53646 15.7057,4.27344 16.0234,4.10156 C16.3411,3.92969 16.724,3.84375 17.1719,3.84375 C17.901,3.84375 18.4922,4.13281 18.9453,4.71094 C19.3984,5.28906 19.625,6.05208 19.625,7 C19.625,7.94792 19.3984,8.71094 18.9453,9.28906 C18.4922,9.86719 17.901,10.1562 17.1719,10.1562 C16.724,10.1562 16.3411,10.0703 16.0234,9.89844 C15.7057,9.72656 15.4479,9.45833 15.25,9.09375 M18.6094,7 C18.6094,6.27083 18.4583,5.70052 18.1562,5.28906 C17.8542,4.8776 17.4427,4.67188 16.9219,4.67188 C16.401,4.67188 15.9922,4.8776 15.6953,5.28906 C15.3984,5.70052 15.25,6.27083 15.25,7 C15.25,7.72917 15.3984,8.29948 15.6953,8.71094 C15.9922,9.1224 16.401,9.32812 16.9219,9.32812 C17.4427,9.32812 17.8542,9.1224 18.1562,8.71094 C18.4583,8.29948 18.6094,7.72917 18.6094,7 M25.8281,11.8281 L25.8281,12.5938 L20.1094,12.5938 L20.1094,11.8281 L25.8281,11.8281 M27.7188,9.09375 L27.7188,12.2812 L26.7188,12.2812 L26.7188,3.98438 L27.7188,3.98438 L27.7188,4.89062 C27.9167,4.53646 28.1745,4.27344 28.4922,4.10156 C28.8099,3.92969 29.1927,3.84375 29.6406,3.84375 C30.3698,3.84375 30.9609,4.13281 31.4141,4.71094 C31.8672,5.28906 32.0938,6.05208 32.0938,7 C32.0938,7.94792 31.8672,8.71094 31.4141,9.28906 C30.9609,9.86719 30.3698,10.1562 29.6406,10.1562 C29.1927,10.1562 28.8099,10.0703 28.4922,9.89844 C28.1745,9.72656 27.9167,9.45833 27.7188,9.09375 M31.0781,7 C31.0781,6.27083 30.9271,5.70052 30.625,5.28906 C30.3229,4.8776 29.9115,4.67188 29.3906,4.67188 C28.8698,4.67188 28.4609,4.8776 28.1641,5.28906 C27.8672,5.70052 27.7188,6.27083 27.7188,7 C27.7188,7.72917 27.8672,8.29948 28.1641,8.71094 C28.4609,9.1224 28.8698,9.32812 29.3906,9.32812 C29.9115,9.32812 30.3229,9.1224 30.625,8.71094 C30.9271,8.29948 31.0781,7.72917 31.0781,7 M38.0469,4.21875 L38.0469,5.14062 C37.776,4.98438 37.5,4.86719 37.2188,4.78906 C36.9375,4.71094 36.651,4.67188 36.3594,4.67188 C35.724,4.67188 35.2292,4.875 34.875,5.28125 C34.5208,5.6875 34.3438,6.26042 34.3438,7 C34.3438,7.72917 34.5208,8.29688 34.875,8.70312 C35.2292,9.10938 35.724,9.3125 36.3594,9.3125 C36.651,9.3125 36.9375,9.27604 37.2188,9.20312 C37.5,9.13021 37.776,9.01562 38.0469,8.85938 L38.0469,9.76562 C37.776,9.90104 37.4922,10 37.1953,10.0625 C36.8984,10.125 36.5833,10.1562 36.25,10.1562 C35.3438,10.1562 34.625,9.8724 34.0938,9.30469 C33.5625,8.73698 33.2969,7.96875 33.2969,7 C33.2969,6.02083 33.5651,5.25 34.1016,4.6875 C34.638,4.125 35.375,3.84375 36.3125,3.84375 C36.625,3.84375 36.9245,3.875 37.2109,3.9375 C37.4974,4 37.776,4.09375 38.0469,4.21875 M43.7344,4.89062 L43.7344,1.64062 L44.7188,1.64062 L44.7188,10 L43.7344,10 L43.7344,9.09375 C43.526,9.45833 43.263,9.72656 42.9453,9.89844 C42.6276,10.0703 42.2448,10.1562 41.7969,10.1562 C41.0781,10.1562 40.4896,9.86719 40.0312,9.28906 C39.5729,8.71094 39.3438,7.94792 39.3438,7 C39.3438,6.05208 39.5729,5.28906 40.0312,4.71094 C40.4896,4.13281 41.0781,3.84375 41.7969,3.84375 C42.2448,3.84375 42.6276,3.92969 42.9453,4.10156 C43.263,4.27344 43.526,4.53646 43.7344,4.89062 M40.3594,7 C40.3594,7.72917 40.5104,8.29948 40.8125,8.71094 C41.1146,9.1224 41.526,9.32812 42.0469,9.32812 C42.5677,9.32812 42.9792,9.1224 43.2812,8.71094 C43.5833,8.29948 43.7344,7.72917 43.7344,7 C43.7344,6.27083 43.5833,5.70052 43.2812,5.28906 C42.9792,4.8776 42.5677,4.67188 42.0469,4.67188 C41.526,4.67188 41.1146,4.8776 40.8125,5.28906 C40.5104,5.70052 40.3594,6.27083 40.3594,7 "/>
</g>

<g fill="none" stroke="#000000" stroke-opacity="1" stroke-width="1" stroke-linecap="square" stroke-linejoin="bevel" transform="matrix(2,0,0,2,327.877,131)"
font-family="sans" font-size="11" font-weight="100" font-style="normal" 
>
</g>

<g fill="none" stroke="#000000" stroke-opacity="1" stroke-width="1" stroke-linecap="square" stroke-linejoin="bevel" transform="matrix(2,0,0,2,327.877,131)"
font-family="Ubuntu" font-size="11" font-weight="400" font-style="normal" 
>
</g>

<g fill="none" stroke="#000000" stroke-opacity="1" stroke-width="1" stroke-linecap="square" stroke-linejoin="bevel" transform="matrix(2,0,0,2,1.42109e-14,302)"
font-family="Ubuntu" font-size="11" font-weight="400" font-style="normal" 
>
</g>

<g fill="none" stroke="#000000" stroke-opacity="1" stroke-width="1" stroke-linecap="square" stroke-linejoin="bevel" transform="matrix(2,0,0,2,1.42109e-14,302)"
font-family="Ubuntu" font-size="11" font-weight="400" font-style="normal" 
>
</g>

<g fill="none" stroke="#000000" stroke-opacity="1" stroke-width="1" stroke-linecap="square" stroke-linejoin="bevel" transform="matrix(2,0,0,2,1.42109e-14,302)"
font-family="Ubuntu" font-size="11" font-weight="400" font-style="normal" 
>
</g>

<g fill="none" stroke="#000000" stroke-opacity="1" stroke-width="1" stroke-linecap="square" stroke-linejoin="round" transform="matrix(2,0,0,2,1.42109e-14,302)"
font-family="Ubuntu" font-size="11" font-weight="400" font-style="normal" 
>
<ellipse cx="362.68" cy="-72" rx="67.0936" ry="17.5"/>
</g>

<g fill="none" stroke="#000000" stroke-opacity="1" stroke-width="1" stroke-linecap="square" stroke-linejoin="bevel" transform="matrix(2,0,0,2,1.42109e-14,302)"
font-family="Ubuntu" font-size="11" font-weight="400" font-style="normal" 
>
</g>

<g fill="none" stroke="#000000" stroke-opacity="1" stroke-width="1" stroke-linecap="square" stroke-linejoin="bevel" transform="matrix(2,0,0,2,637.704,145)"
font-family="Ubuntu" font-size="11" font-weight="400" font-style="normal" 
>
</g>

<g fill="none" stroke="#000000" stroke-opacity="1" stroke-width="1" stroke-linecap="square" stroke-linejoin="bevel" transform="matrix(2,0,0,2,637.704,145)"
font-family="sans" font-size="11" font-weight="100" font-style="normal" 
>
</g>

<g fill="#000000" fill-opacity="1" stroke="#000000" stroke-opacity="1" stroke-width="1" stroke-linecap="square" stroke-linejoin="round" transform="matrix(2,0,0,2,637.704,145)"
font-family="sans" font-size="11" font-weight="100" font-style="normal" 
>
<path vector-effect="none" fill-rule="nonzero" d="M2.79688,1.98438 L3.70312,1.98438 L0.90625,11.0156 L0,11.0156 L2.79688,1.98438 M8.57812,4.15625 L8.57812,5.09375 C8.29688,4.94792 8.00521,4.84115 7.70312,4.77344 C7.40104,4.70573 7.08854,4.67188 6.76562,4.67188 C6.27604,4.67188 5.90885,4.7474 5.66406,4.89844 C5.41927,5.04948 5.29688,5.27083 5.29688,5.5625 C5.29688,5.79167 5.38542,5.97135 5.5625,6.10156 C5.73958,6.23177 6.09375,6.35938 6.625,6.48438 L6.95312,6.5625 C7.66146,6.70833 8.16146,6.91927 8.45312,7.19531 C8.74479,7.47135 8.89062,7.85417 8.89062,8.34375 C8.89062,8.89583 8.67188,9.33594 8.23438,9.66406 C7.79688,9.99219 7.1875,10.1562 6.40625,10.1562 C6.08333,10.1562 5.7474,10.125 5.39844,10.0625 C5.04948,10 4.68229,9.90625 4.29688,9.78125 L4.29688,8.76562 C4.66146,8.95312 5.02083,9.09375 5.375,9.1875 C5.72917,9.28125 6.08333,9.32812 6.4375,9.32812 C6.89583,9.32812 7.25,9.2474 7.5,9.08594 C7.75,8.92448 7.875,8.70312 7.875,8.42188 C7.875,8.15104 7.78646,7.94271 7.60938,7.79688 C7.43229,7.65104 7.03646,7.51562 6.42188,7.39062 L6.07812,7.29688 C5.46354,7.17188 5.02083,6.97656 4.75,6.71094 C4.47917,6.44531 4.34375,6.07812 4.34375,5.60938 C4.34375,5.04688 4.54427,4.61198 4.94531,4.30469 C5.34635,3.9974 5.91667,3.84375 6.65625,3.84375 C7.02083,3.84375 7.36458,3.86979 7.6875,3.92188 C8.01042,3.97396 8.30729,4.05208 8.57812,4.15625 M10.3594,7.625 L10.3594,3.98438 L11.3438,3.98438 L11.3438,7.59375 C11.3438,8.15625 11.4557,8.58073 11.6797,8.86719 C11.9036,9.15365 12.2344,9.29688 12.6719,9.29688 C13.2135,9.29688 13.638,9.1276 13.9453,8.78906 C14.2526,8.45052 14.4062,7.98438 14.4062,7.39062 L14.4062,3.98438 L15.3906,3.98438 L15.3906,10 L14.4062,10 L14.4062,9.07812 C14.1667,9.44271 13.888,9.71354 13.5703,9.89062 C13.2526,10.0677 12.8854,10.1562 12.4688,10.1562 C11.7812,10.1562 11.2578,9.9401 10.8984,9.50781 C10.5391,9.07552 10.3594,8.44792 10.3594,7.625 M21.75,7 C21.75,6.27083 21.599,5.70052 21.2969,5.28906 C20.9948,4.8776 20.5833,4.67188 20.0625,4.67188 C19.5417,4.67188 19.1328,4.8776 18.8359,5.28906 C18.5391,5.70052 18.3906,6.27083 18.3906,7 C18.3906,7.72917 18.5391,8.29948 18.8359,8.71094 C19.1328,9.1224 19.5417,9.32812 20.0625,9.32812 C20.5833,9.32812 20.9948,9.1224 21.2969,8.71094 C21.599,8.29948 21.75,7.72917 21.75,7 M18.3906,4.89062 C18.5885,4.53646 18.8464,4.27344 19.1641,4.10156 C19.4818,3.92969 19.8646,3.84375 20.3125,3.84375 C21.0417,3.84375 21.6328,4.13281 22.0859,4.71094 C22.5391,5.28906 22.7656,6.05208 22.7656,7 C22.7656,7.94792 22.5391,8.71094 22.0859,9.28906 C21.6328,9.86719 21.0417,10.1562 20.3125,10.1562 C19.8646,10.1562 19.4818,10.0703 19.1641,9.89844 C18.8464,9.72656 18.5885,9.45833 18.3906,9.09375 L18.3906,10 L17.3906,10 L17.3906,1.64062 L18.3906,1.64062 L18.3906,4.89062 M28.9688,11.8281 L28.9688,12.5938 L23.25,12.5938 L23.25,11.8281 L28.9688,11.8281 M30.8594,9.09375 L30.8594,12.2812 L29.8594,12.2812 L29.8594,3.98438 L30.8594,3.98438 L30.8594,4.89062 C31.0573,4.53646 31.3151,4.27344 31.6328,4.10156 C31.9505,3.92969 32.3333,3.84375 32.7812,3.84375 C33.5104,3.84375 34.1016,4.13281 34.5547,4.71094 C35.0078,5.28906 35.2344,6.05208 35.2344,7 C35.2344,7.94792 35.0078,8.71094 34.5547,9.28906 C34.1016,9.86719 33.5104,10.1562 32.7812,10.1562 C32.3333,10.1562 31.9505,10.0703 31.6328,9.89844 C31.3151,9.72656 31.0573,9.45833 30.8594,9.09375 M34.2188,7 C34.2188,6.27083 34.0677,5.70052 33.7656,5.28906 C33.4635,4.8776 33.0521,4.67188 32.5312,4.67188 C32.0104,4.67188 31.6016,4.8776 31.3047,5.28906 C31.0078,5.70052 30.8594,6.27083 30.8594,7 C30.8594,7.72917 31.0078,8.29948 31.3047,8.71094 C31.6016,9.1224 32.0104,9.32812 32.5312,9.32812 C33.0521,9.32812 33.4635,9.1224 33.7656,8.71094 C34.0677,8.29948 34.2188,7.72917 34.2188,7 M41.1875,4.21875 L41.1875,5.14062 C40.9167,4.98438 40.6406,4.86719 40.3594,4.78906 C40.0781,4.71094 39.7917,4.67188 39.5,4.67188 C38.8646,4.67188 38.3698,4.875 38.0156,5.28125 C37.6615,5.6875 37.4844,6.26042 37.4844,7 C37.4844,7.72917 37.6615,8.29688 38.0156,8.70312 C38.3698,9.10938 38.8646,9.3125 39.5,9.3125 C39.7917,9.3125 40.0781,9.27604 40.3594,9.20312 C40.6406,9.13021 40.9167,9.01562 41.1875,8.85938 L41.1875,9.76562 C40.9167,9.90104 40.6328,10 40.3359,10.0625 C40.0391,10.125 39.724,10.1562 39.3906,10.1562 C38.4844,10.1562 37.7656,9.8724 37.2344,9.30469 C36.7031,8.73698 36.4375,7.96875 36.4375,7 C36.4375,6.02083 36.7057,5.25 37.2422,4.6875 C37.7786,4.125 38.5156,3.84375 39.4531,3.84375 C39.7656,3.84375 40.0651,3.875 40.3516,3.9375 C40.638,4 40.9167,4.09375 41.1875,4.21875 M42.9062,1.64062 L43.9062,1.64062 L43.9062,10 L42.9062,10 L42.9062,1.64062 M50.5312,11.8281 L50.5312,12.5938 L44.8125,12.5938 L44.8125,11.8281 L50.5312,11.8281 M55.2969,4.15625 L55.2969,5.09375 C55.0156,4.94792 54.724,4.84115 54.4219,4.77344 C54.1198,4.70573 53.8073,4.67188 53.4844,4.67188 C52.9948,4.67188 52.6276,4.7474 52.3828,4.89844 C52.138,5.04948 52.0156,5.27083 52.0156,5.5625 C52.0156,5.79167 52.1042,5.97135 52.2812,6.10156 C52.4583,6.23177 52.8125,6.35938 53.3438,6.48438 L53.6719,6.5625 C54.3802,6.70833 54.8802,6.91927 55.1719,7.19531 C55.4635,7.47135 55.6094,7.85417 55.6094,8.34375 C55.6094,8.89583 55.3906,9.33594 54.9531,9.66406 C54.5156,9.99219 53.9062,10.1562 53.125,10.1562 C52.8021,10.1562 52.4661,10.125 52.1172,10.0625 C51.7682,10 51.401,9.90625 51.0156,9.78125 L51.0156,8.76562 C51.3802,8.95312 51.7396,9.09375 52.0938,9.1875 C52.4479,9.28125 52.8021,9.32812 53.1562,9.32812 C53.6146,9.32812 53.9688,9.2474 54.2188,9.08594 C54.4688,8.92448 54.5938,8.70312 54.5938,8.42188 C54.5938,8.15104 54.5052,7.94271 54.3281,7.79688 C54.151,7.65104 53.7552,7.51562 53.1406,7.39062 L52.7969,7.29688 C52.1823,7.17188 51.7396,6.97656 51.4688,6.71094 C51.1979,6.44531 51.0625,6.07812 51.0625,5.60938 C51.0625,5.04688 51.263,4.61198 51.6641,4.30469 C52.0651,3.9974 52.6354,3.84375 53.375,3.84375 C53.7396,3.84375 54.0833,3.86979 54.4062,3.92188 C54.7292,3.97396 55.026,4.05208 55.2969,4.15625 M58.1562,2.28125 L58.1562,3.98438 L60.1875,3.98438 L60.1875,4.75 L58.1562,4.75 L58.1562,8.01562 C58.1562,8.50521 58.224,8.82031 58.3594,8.96094 C58.4948,9.10156 58.7656,9.17188 59.1719,9.17188 L60.1875,9.17188 L60.1875,10 L59.1719,10 C58.4115,10 57.8854,9.85677 57.5938,9.57031 C57.3021,9.28385 57.1562,8.76562 57.1562,8.01562 L57.1562,4.75 L56.4375,4.75 L56.4375,3.98438 L57.1562,3.98438 L57.1562,2.28125 L58.1562,2.28125 M65.4531,4.89062 L65.4531,1.64062 L66.4375,1.64062 L66.4375,10 L65.4531,10 L65.4531,9.09375 C65.2448,9.45833 64.9818,9.72656 64.6641,9.89844 C64.3464,10.0703 63.9635,10.1562 63.5156,10.1562 C62.7969,10.1562 62.2083,9.86719 61.75,9.28906 C61.2917,8.71094 61.0625,7.94792 61.0625,7 C61.0625,6.05208 61.2917,5.28906 61.75,4.71094 C62.2083,4.13281 62.7969,3.84375 63.5156,3.84375 C63.9635,3.84375 64.3464,3.92969 64.6641,4.10156 C64.9818,4.27344 65.2448,4.53646 65.4531,4.89062 M62.0781,7 C62.0781,7.72917 62.2292,8.29948 62.5312,8.71094 C62.8333,9.1224 63.2448,9.32812 63.7656,9.32812 C64.2865,9.32812 64.6979,9.1224 65,8.71094 C65.3021,8.29948 65.4531,7.72917 65.4531,7 C65.4531,6.27083 65.3021,5.70052 65,5.28906 C64.6979,4.8776 64.2865,4.67188 63.7656,4.67188 C63.2448,4.67188 62.8333,4.8776 62.5312,5.28906 C62.2292,5.70052 62.0781,6.27083 62.0781,7 M72.4219,4.89062 L72.4219,1.64062 L73.4062,1.64062 L73.4062,10 L72.4219,10 L72.4219,9.09375 C72.2135,9.45833 71.9505,9.72656 71.6328,9.89844 C71.3151,10.0703 70.9323,10.1562 70.4844,10.1562 C69.7656,10.1562 69.1771,9.86719 68.7188,9.28906 C68.2604,8.71094 68.0312,7.94792 68.0312,7 C68.0312,6.05208 68.2604,5.28906 68.7188,4.71094 C69.1771,4.13281 69.7656,3.84375 70.4844,3.84375 C70.9323,3.84375 71.3151,3.92969 71.6328,4.10156 C71.9505,4.27344 72.2135,4.53646 72.4219,4.89062 M69.0469,7 C69.0469,7.72917 69.1979,8.29948 69.5,8.71094 C69.8021,9.1224 70.2135,9.32812 70.7344,9.32812 C71.2552,9.32812 71.6667,9.1224 71.9688,8.71094 C72.2708,8.29948 72.4219,7.72917 72.4219,7 C72.4219,6.27083 72.2708,5.70052 71.9688,5.28906 C71.6667,4.8776 71.2552,4.67188 70.7344,4.67188 C70.2135,4.67188 69.8021,4.8776 69.5,5.28906 C69.1979,5.70052 69.0469,6.27083 69.0469,7 M80.5781,6.75 L80.5781,7.23438 L76.0312,7.23438 C76.0729,7.91146 76.276,8.42708 76.6406,8.78125 C77.0052,9.13542 77.5156,9.3125 78.1719,9.3125 C78.5573,9.3125 78.9271,9.26562 79.2812,9.17188 C79.6354,9.07812 79.9896,8.94271 80.3438,8.76562 L80.3438,9.6875 C79.9896,9.84375 79.625,9.96094 79.25,10.0391 C78.875,10.1172 78.5,10.1562 78.125,10.1562 C77.1562,10.1562 76.3932,9.8776 75.8359,9.32031 C75.2786,8.76302 75,8.00521 75,7.04688 C75,6.06771 75.2656,5.28906 75.7969,4.71094 C76.3281,4.13281 77.0469,3.84375 77.9531,3.84375 C78.7552,3.84375 79.3932,4.10417 79.8672,4.625 C80.3411,5.14583 80.5781,5.85417 80.5781,6.75 M79.5781,6.45312 C79.5781,5.91146 79.4297,5.47917 79.1328,5.15625 C78.8359,4.83333 78.4427,4.67188 77.9531,4.67188 C77.401,4.67188 76.9609,4.82812 76.6328,5.14062 C76.3047,5.45312 76.1146,5.89062 76.0625,6.45312 L79.5781,6.45312 M81.4844,3.98438 L82.5312,3.98438 L84.4062,9.03125 L86.2969,3.98438 L87.3438,3.98438 L85.0781,10 L83.7344,10 L81.4844,3.98438"/>
</g>

<g fill="none" stroke="#000000" stroke-opacity="1" stroke-width="1" stroke-linecap="square" stroke-linejoin="bevel" transform="matrix(2,0,0,2,637.704,145)"
font-family="sans" font-size="11" font-weight="100" font-style="normal" 
>
</g>

<g fill="none" stroke="#000000" stroke-opacity="1" stroke-width="1" stroke-linecap="square" stroke-linejoin="bevel" transform="matrix(2,0,0,2,637.704,145)"
font-family="Ubuntu" font-size="11" font-weight="400" font-style="normal" 
>
</g>

<g fill="none" stroke="#000000" stroke-opacity="1" stroke-width="1" stroke-linecap="square" stroke-linejoin="bevel" transform="matrix(2,0,0,2,1.42109e-14,302)"
font-family="Ubuntu" font-size="11" font-weight="400" font-style="normal" 
>
</g>

<g fill="none" stroke="#000000" stroke-opacity="1" stroke-width="1" stroke-linecap="square" stroke-linejoin="bevel" transform="matrix(2,0,0,2,1.42109e-14,302)"
font-family="Ubuntu" font-size="11" font-weight="400" font-style="normal" 
>
</g>

<g fill="none" stroke="#000000" stroke-opacity="1" stroke-width="1" stroke-linecap="square" stroke-linejoin="bevel" transform="matrix(2,0,0,2,1.42109e-14,302)"
font-family="Ubuntu" font-size="11" font-weight="400" font-style="normal" 
>
</g>

<g fill="none" stroke="#000000" stroke-opacity="1" stroke-width="1" stroke-linecap="square" stroke-linejoin="round" transform="matrix(2,0,0,2,1.42109e-14,302)"
font-family="Ubuntu" font-size="11" font-weight="400" font-style="normal" 
>
<path vector-effect="none" fill-rule="evenodd" d="M87.172,-106.41 C103.95,-101.75 123.77,-96.242 141.22,-91.389 "/>
</g>

<g fill="none" stroke="#000000" stroke-opacity="1" stroke-width="1" stroke-linecap="square" stroke-linejoin="bevel" transform="matrix(2,0,0,2,1.42109e-14,302)"
font-family="Ubuntu" font-size="11" font-weight="400" font-style="normal" 
>
</g>

<g fill="none" stroke="#000000" stroke-opacity="1" stroke-width="1" stroke-linecap="square" stroke-linejoin="bevel" transform="matrix(2,0,0,2,209.271,72)"
font-family="Ubuntu" font-size="11" font-weight="400" font-style="normal" 
>
</g>

<g fill="none" stroke="#000000" stroke-opacity="1" stroke-width="1" stroke-linecap="square" stroke-linejoin="bevel" transform="matrix(2,0,0,2,209.271,72)"
font-family="sans" font-size="11" font-weight="100" font-style="normal" 
>
</g>

<g fill="#000000" fill-opacity="1" stroke="#000000" stroke-opacity="1" stroke-width="1" stroke-linecap="square" stroke-linejoin="round" transform="matrix(2,0,0,2,209.271,72)"
font-family="sans" font-size="11" font-weight="100" font-style="normal" 
>
<path vector-effect="none" fill-rule="nonzero" d="M2.79688,1.98438 L3.70312,1.98438 L0.90625,11.0156 L0,11.0156 L2.79688,1.98438 M9.0625,4.21875 L9.0625,5.14062 C8.79167,4.98438 8.51562,4.86719 8.23438,4.78906 C7.95312,4.71094 7.66667,4.67188 7.375,4.67188 C6.73958,4.67188 6.24479,4.875 5.89062,5.28125 C5.53646,5.6875 5.35938,6.26042 5.35938,7 C5.35938,7.72917 5.53646,8.29688 5.89062,8.70312 C6.24479,9.10938 6.73958,9.3125 7.375,9.3125 C7.66667,9.3125 7.95312,9.27604 8.23438,9.20312 C8.51562,9.13021 8.79167,9.01562 9.0625,8.85938 L9.0625,9.76562 C8.79167,9.90104 8.50781,10 8.21094,10.0625 C7.91406,10.125 7.59896,10.1562 7.26562,10.1562 C6.35938,10.1562 5.64062,9.8724 5.10938,9.30469 C4.57812,8.73698 4.3125,7.96875 4.3125,7 C4.3125,6.02083 4.58073,5.25 5.11719,4.6875 C5.65365,4.125 6.39062,3.84375 7.32812,3.84375 C7.64062,3.84375 7.9401,3.875 8.22656,3.9375 C8.51302,4 8.79167,4.09375 9.0625,4.21875 M13.2969,10.5625 C13.0156,11.2812 12.7422,11.7474 12.4766,11.9609 C12.2109,12.1745 11.8542,12.2812 11.4062,12.2812 L10.625,12.2812 L10.625,11.4688 L11.2031,11.4688 C11.474,11.4688 11.6849,11.4036 11.8359,11.2734 C11.987,11.1432 12.151,10.8385 12.3281,10.3594 L12.5156,9.90625 L10.0781,3.98438 L11.125,3.98438 L13,8.6875 L14.8906,3.98438 L15.9375,3.98438 L13.2969,10.5625 M21.6094,4.21875 L21.6094,5.14062 C21.3385,4.98438 21.0625,4.86719 20.7812,4.78906 C20.5,4.71094 20.2135,4.67188 19.9219,4.67188 C19.2865,4.67188 18.7917,4.875 18.4375,5.28125 C18.0833,5.6875 17.9062,6.26042 17.9062,7 C17.9062,7.72917 18.0833,8.29688 18.4375,8.70312 C18.7917,9.10938 19.2865,9.3125 19.9219,9.3125 C20.2135,9.3125 20.5,9.27604 20.7812,9.20312 C21.0625,9.13021 21.3385,9.01562 21.6094,8.85938 L21.6094,9.76562 C21.3385,9.90104 21.0547,10 20.7578,10.0625 C20.4609,10.125 20.1458,10.1562 19.8125,10.1562 C18.9062,10.1562 18.1875,9.8724 17.6562,9.30469 C17.125,8.73698 16.8594,7.96875 16.8594,7 C16.8594,6.02083 17.1276,5.25 17.6641,4.6875 C18.2005,4.125 18.9375,3.84375 19.875,3.84375 C20.1875,3.84375 20.487,3.875 20.7734,3.9375 C21.0599,4 21.3385,4.09375 21.6094,4.21875 M23.3281,1.64062 L24.3281,1.64062 L24.3281,10 L23.3281,10 L23.3281,1.64062 M31.5312,6.75 L31.5312,7.23438 L26.9844,7.23438 C27.026,7.91146 27.2292,8.42708 27.5938,8.78125 C27.9583,9.13542 28.4688,9.3125 29.125,9.3125 C29.5104,9.3125 29.8802,9.26562 30.2344,9.17188 C30.5885,9.07812 30.9427,8.94271 31.2969,8.76562 L31.2969,9.6875 C30.9427,9.84375 30.5781,9.96094 30.2031,10.0391 C29.8281,10.1172 29.4531,10.1562 29.0781,10.1562 C28.1094,10.1562 27.3464,9.8776 26.7891,9.32031 C26.2318,8.76302 25.9531,8.00521 25.9531,7.04688 C25.9531,6.06771 26.2188,5.28906 26.75,4.71094 C27.2812,4.13281 28,3.84375 28.9062,3.84375 C29.7083,3.84375 30.3464,4.10417 30.8203,4.625 C31.2943,5.14583 31.5312,5.85417 31.5312,6.75 M30.5312,6.45312 C30.5312,5.91146 30.3828,5.47917 30.0859,5.15625 C29.7891,4.83333 29.3958,4.67188 28.9062,4.67188 C28.3542,4.67188 27.9141,4.82812 27.5859,5.14062 C27.2578,5.45312 27.0677,5.89062 27.0156,6.45312 L30.5312,6.45312"/>
</g>

<g fill="none" stroke="#000000" stroke-opacity="1" stroke-width="1" stroke-linecap="square" stroke-linejoin="bevel" transform="matrix(2,0,0,2,209.271,72)"
font-family="sans" font-size="11" font-weight="100" font-style="normal" 
>
</g>

<g fill="none" stroke="#000000" stroke-opacity="1" stroke-width="1" stroke-linecap="square" stroke-linejoin="bevel" transform="matrix(2,0,0,2,209.271,72)"
font-family="Ubuntu" font-size="11" font-weight="400" font-style="normal" 
>
</g>

<g fill="none" stroke="#000000" stroke-opacity="1" stroke-width="1" stroke-linecap="square" stroke-linejoin="bevel" transform="matrix(2,0,0,2,1.42109e-14,302)"
font-family="Ubuntu" font-size="11" font-weight="400" font-style="normal" 
>
</g>

<g fill="#000000" fill-opacity="1" stroke="#000000" stroke-opacity="1" stroke-width="1" stroke-linecap="square" stroke-linejoin="round" transform="matrix(2,0,0,2,1.42109e-14,302)"
font-family="Ubuntu" font-size="11" font-weight="400" font-style="normal" 
>
<path vector-effect="none" fill-rule="evenodd" d="M141.22,-91.389 L140.25,-87.8995 L151.19,-88.619 L142.19,-94.8785 L141.22,-91.389"/>
</g>

<g fill="none" stroke="#000000" stroke-opacity="1" stroke-width="1" stroke-linecap="square" stroke-linejoin="bevel" transform="matrix(2,0,0,2,1.42109e-14,302)"
font-family="Ubuntu" font-size="11" font-weight="400" font-style="normal" 
>
</g>

<g fill="none" stroke="#000000" stroke-opacity="1" stroke-width="1" stroke-linecap="square" stroke-linejoin="bevel" transform="matrix(2,0,0,2,1.42109e-14,302)"
font-family="Ubuntu" font-size="11" font-weight="400" font-style="normal" 
>
</g>

<g fill="none" stroke="#000000" stroke-opacity="1" stroke-width="1" stroke-linecap="square" stroke-linejoin="bevel" transform="matrix(2,0,0,2,1.42109e-14,302)"
font-family="Ubuntu" font-size="11" font-weight="400" font-style="normal" 
>
</g>

<g fill="none" stroke="#000000" stroke-opacity="1" stroke-width="1" stroke-linecap="square" stroke-linejoin="bevel" transform="matrix(2,0,0,2,1.42109e-14,302)"
font-family="Ubuntu" font-size="11" font-weight="400" font-style="normal" 
>
</g>

<g fill="none" stroke="#000000" stroke-opacity="1" stroke-width="1" stroke-linecap="square" stroke-linejoin="round" transform="matrix(2,0,0,2,1.42109e-14,302)"
font-family="Ubuntu" font-size="11" font-weight="400" font-style="normal" 
>
<path vector-effect="none" fill-rule="evenodd" d="M221.32,-89.412 C247.47,-97.535 284.16,-108.93 313.47,-118.03 "/>
</g>

<g fill="none" stroke="#000000" stroke-opacity="1" stroke-width="1" stroke-linecap="square" stroke-linejoin="bevel" transform="matrix(2,0,0,2,1.42109e-14,302)"
font-family="Ubuntu" font-size="11" font-weight="400" font-style="normal" 
>
</g>

<g fill="none" stroke="#000000" stroke-opacity="1" stroke-width="1" stroke-linecap="square" stroke-linejoin="bevel" transform="matrix(2,0,0,2,473.057,62)"
font-family="Ubuntu" font-size="11" font-weight="400" font-style="normal" 
>
</g>

<g fill="none" stroke="#000000" stroke-opacity="1" stroke-width="1" stroke-linecap="square" stroke-linejoin="bevel" transform="matrix(2,0,0,2,473.057,62)"
font-family="sans" font-size="11" font-weight="100" font-style="normal" 
>
</g>

<g fill="#000000" fill-opacity="1" stroke="#000000" stroke-opacity="1" stroke-width="1" stroke-linecap="square" stroke-linejoin="round" transform="matrix(2,0,0,2,473.057,62)"
font-family="sans" font-size="11" font-weight="100" font-style="normal" 
>
<path vector-effect="none" fill-rule="nonzero" d="M2.79688,1.98438 L3.70312,1.98438 L0.90625,11.0156 L0,11.0156 L2.79688,1.98438 M5.70312,9.09375 L5.70312,12.2812 L4.70312,12.2812 L4.70312,3.98438 L5.70312,3.98438 L5.70312,4.89062 C5.90104,4.53646 6.15885,4.27344 6.47656,4.10156 C6.79427,3.92969 7.17708,3.84375 7.625,3.84375 C8.35417,3.84375 8.94531,4.13281 9.39844,4.71094 C9.85156,5.28906 10.0781,6.05208 10.0781,7 C10.0781,7.94792 9.85156,8.71094 9.39844,9.28906 C8.94531,9.86719 8.35417,10.1562 7.625,10.1562 C7.17708,10.1562 6.79427,10.0703 6.47656,9.89844 C6.15885,9.72656 5.90104,9.45833 5.70312,9.09375 M9.0625,7 C9.0625,6.27083 8.91146,5.70052 8.60938,5.28906 C8.30729,4.8776 7.89583,4.67188 7.375,4.67188 C6.85417,4.67188 6.44531,4.8776 6.14844,5.28906 C5.85156,5.70052 5.70312,6.27083 5.70312,7 C5.70312,7.72917 5.85156,8.29948 6.14844,8.71094 C6.44531,9.1224 6.85417,9.32812 7.375,9.32812 C7.89583,9.32812 8.30729,9.1224 8.60938,8.71094 C8.91146,8.29948 9.0625,7.72917 9.0625,7 M14.0469,4.67188 C13.5156,4.67188 13.0964,4.88021 12.7891,5.29688 C12.4818,5.71354 12.3281,6.28125 12.3281,7 C12.3281,7.71875 12.4792,8.28385 12.7812,8.69531 C13.0833,9.10677 13.5052,9.3125 14.0469,9.3125 C14.5677,9.3125 14.9818,9.10677 15.2891,8.69531 C15.5964,8.28385 15.75,7.71875 15.75,7 C15.75,6.28125 15.5964,5.71354 15.2891,5.29688 C14.9818,4.88021 14.5677,4.67188 14.0469,4.67188 M14.0469,3.84375 C14.901,3.84375 15.5729,4.1224 16.0625,4.67969 C16.5521,5.23698 16.7969,6.01042 16.7969,7 C16.7969,7.97917 16.5521,8.75 16.0625,9.3125 C15.5729,9.875 14.901,10.1562 14.0469,10.1562 C13.1823,10.1562 12.5052,9.875 12.0156,9.3125 C11.526,8.75 11.2812,7.97917 11.2812,7 C11.2812,6.01042 11.526,5.23698 12.0156,4.67969 C12.5052,4.1224 13.1823,3.84375 14.0469,3.84375 M18.4219,3.98438 L19.4219,3.98438 L19.4219,10 L18.4219,10 L18.4219,3.98438 M18.4219,1.64062 L19.4219,1.64062 L19.4219,2.89062 L18.4219,2.89062 L18.4219,1.64062 M26.4688,6.375 L26.4688,10 L25.4844,10 L25.4844,6.40625 C25.4844,5.83333 25.375,5.40625 25.1562,5.125 C24.9375,4.84375 24.6042,4.70312 24.1562,4.70312 C23.625,4.70312 23.2057,4.8724 22.8984,5.21094 C22.5911,5.54948 22.4375,6.01042 22.4375,6.59375 L22.4375,10 L21.4375,10 L21.4375,3.98438 L22.4375,3.98438 L22.4375,4.92188 C22.6667,4.55729 22.9427,4.28646 23.2656,4.10938 C23.5885,3.93229 23.9583,3.84375 24.375,3.84375 C25.0625,3.84375 25.5833,4.05729 25.9375,4.48438 C26.2917,4.91146 26.4688,5.54167 26.4688,6.375 M29.4219,2.28125 L29.4219,3.98438 L31.4531,3.98438 L31.4531,4.75 L29.4219,4.75 L29.4219,8.01562 C29.4219,8.50521 29.4896,8.82031 29.625,8.96094 C29.7604,9.10156 30.0312,9.17188 30.4375,9.17188 L31.4531,9.17188 L31.4531,10 L30.4375,10 C29.6771,10 29.151,9.85677 28.8594,9.57031 C28.5677,9.28385 28.4219,8.76562 28.4219,8.01562 L28.4219,4.75 L27.7031,4.75 L27.7031,3.98438 L28.4219,3.98438 L28.4219,2.28125 L29.4219,2.28125 M33.8281,9.09375 L37.6094,9.09375 L37.6094,10 L32.5312,10 L32.5312,9.09375 C32.9375,8.66667 33.4974,8.09375 34.2109,7.375 C34.9245,6.65625 35.3698,6.19271 35.5469,5.98438 C35.8906,5.58854 36.1328,5.25521 36.2734,4.98438 C36.4141,4.71354 36.4844,4.44792 36.4844,4.1875 C36.4844,3.76042 36.3359,3.41406 36.0391,3.14844 C35.7422,2.88281 35.349,2.75 34.8594,2.75 C34.526,2.75 34.1693,2.8099 33.7891,2.92969 C33.4089,3.04948 33.0052,3.22917 32.5781,3.46875 L32.5781,2.375 C33.0156,2.19792 33.4245,2.0625 33.8047,1.96875 C34.1849,1.875 34.5312,1.82812 34.8438,1.82812 C35.6771,1.82812 36.3411,2.03646 36.8359,2.45312 C37.3307,2.86979 37.5781,3.42708 37.5781,4.125 C37.5781,4.45833 37.5156,4.77083 37.3906,5.0625 C37.2656,5.35417 37.0417,5.70312 36.7188,6.10938 C36.625,6.21354 36.3385,6.51302 35.8594,7.00781 C35.3802,7.5026 34.7031,8.19792 33.8281,9.09375 "/>
</g>

<g fill="none" stroke="#000000" stroke-opacity="1" stroke-width="1" stroke-linecap="square" stroke-linejoin="bevel" transform="matrix(2,0,0,2,473.057,62)"
font-family="sans" font-size="11" font-weight="100" font-style="normal" 
>
</g>

<g fill="none" stroke="#000000" stroke-opacity="1" stroke-width="1" stroke-linecap="square" stroke-linejoin="bevel" transform="matrix(2,0,0,2,473.057,62)"
font-family="Ubuntu" font-size="11" font-weight="400" font-style="normal" 
>
</g>

<g fill="none" stroke="#000000" stroke-opacity="1" stroke-width="1" stroke-linecap="square" stroke-linejoin="bevel" transform="matrix(2,0,0,2,1.42109e-14,302)"
font-family="Ubuntu" font-size="11" font-weight="400" font-style="normal" 
>
</g>

<g fill="#000000" fill-opacity="1" stroke="#000000" stroke-opacity="1" stroke-width="1" stroke-linecap="square" stroke-linejoin="round" transform="matrix(2,0,0,2,1.42109e-14,302)"
font-family="Ubuntu" font-size="11" font-weight="400" font-style="normal" 
>
<path vector-effect="none" fill-rule="evenodd" d="M313.47,-118.03 L314.517,-114.66 L323.1,-121.02 L312.424,-121.4 L313.47,-118.03"/>
</g>

<g fill="none" stroke="#000000" stroke-opacity="1" stroke-width="1" stroke-linecap="square" stroke-linejoin="bevel" transform="matrix(2,0,0,2,1.42109e-14,302)"
font-family="Ubuntu" font-size="11" font-weight="400" font-style="normal" 
>
</g>

<g fill="none" stroke="#000000" stroke-opacity="1" stroke-width="1" stroke-linecap="square" stroke-linejoin="bevel" transform="matrix(2,0,0,2,1.42109e-14,302)"
font-family="Ubuntu" font-size="11" font-weight="400" font-style="normal" 
>
</g>

<g fill="none" stroke="#000000" stroke-opacity="1" stroke-width="1" stroke-linecap="square" stroke-linejoin="bevel" transform="matrix(2,0,0,2,1.42109e-14,302)"
font-family="Ubuntu" font-size="11" font-weight="400" font-style="normal" 
>
</g>

<g fill="none" stroke="#000000" stroke-opacity="1" stroke-width="1" stroke-linecap="square" stroke-linejoin="bevel" transform="matrix(2,0,0,2,1.42109e-14,302)"
font-family="Ubuntu" font-size="11" font-weight="400" font-style="normal" 
>
</g>

<g fill="none" stroke="#000000" stroke-opacity="1" stroke-width="1" stroke-linecap="square" stroke-linejoin="round" transform="matrix(2,0,0,2,1.42109e-14,302)"
font-family="Ubuntu" font-size="11" font-weight="400" font-style="normal" 
>
<path vector-effect="none" fill-rule="evenodd" d="M211.44,-64.352 C219.19,-59.964 227.98,-55.416 236.38,-52 C254.88,-44.484 275.57,-38.099 294.73,-32.962 "/>
</g>

<g fill="none" stroke="#000000" stroke-opacity="1" stroke-width="1" stroke-linecap="square" stroke-linejoin="bevel" transform="matrix(2,0,0,2,1.42109e-14,302)"
font-family="Ubuntu" font-size="11" font-weight="400" font-style="normal" 
>
</g>

<g fill="none" stroke="#000000" stroke-opacity="1" stroke-width="1" stroke-linecap="square" stroke-linejoin="bevel" transform="matrix(2,0,0,2,473.057,170)"
font-family="Ubuntu" font-size="11" font-weight="400" font-style="normal" 
>
</g>

<g fill="none" stroke="#000000" stroke-opacity="1" stroke-width="1" stroke-linecap="square" stroke-linejoin="bevel" transform="matrix(2,0,0,2,473.057,170)"
font-family="sans" font-size="11" font-weight="100" font-style="normal" 
>
</g>

<g fill="#000000" fill-opacity="1" stroke="#000000" stroke-opacity="1" stroke-width="1" stroke-linecap="square" stroke-linejoin="round" transform="matrix(2,0,0,2,473.057,170)"
font-family="sans" font-size="11" font-weight="100" font-style="normal" 
>
<path vector-effect="none" fill-rule="nonzero" d="M2.79688,1.98438 L3.70312,1.98438 L0.90625,11.0156 L0,11.0156 L2.79688,1.98438 M5.70312,9.09375 L5.70312,12.2812 L4.70312,12.2812 L4.70312,3.98438 L5.70312,3.98438 L5.70312,4.89062 C5.90104,4.53646 6.15885,4.27344 6.47656,4.10156 C6.79427,3.92969 7.17708,3.84375 7.625,3.84375 C8.35417,3.84375 8.94531,4.13281 9.39844,4.71094 C9.85156,5.28906 10.0781,6.05208 10.0781,7 C10.0781,7.94792 9.85156,8.71094 9.39844,9.28906 C8.94531,9.86719 8.35417,10.1562 7.625,10.1562 C7.17708,10.1562 6.79427,10.0703 6.47656,9.89844 C6.15885,9.72656 5.90104,9.45833 5.70312,9.09375 M9.0625,7 C9.0625,6.27083 8.91146,5.70052 8.60938,5.28906 C8.30729,4.8776 7.89583,4.67188 7.375,4.67188 C6.85417,4.67188 6.44531,4.8776 6.14844,5.28906 C5.85156,5.70052 5.70312,6.27083 5.70312,7 C5.70312,7.72917 5.85156,8.29948 6.14844,8.71094 C6.44531,9.1224 6.85417,9.32812 7.375,9.32812 C7.89583,9.32812 8.30729,9.1224 8.60938,8.71094 C8.91146,8.29948 9.0625,7.72917 9.0625,7 M14.0469,4.67188 C13.5156,4.67188 13.0964,4.88021 12.7891,5.29688 C12.4818,5.71354 12.3281,6.28125 12.3281,7 C12.3281,7.71875 12.4792,8.28385 12.7812,8.69531 C13.0833,9.10677 13.5052,9.3125 14.0469,9.3125 C14.5677,9.3125 14.9818,9.10677 15.2891,8.69531 C15.5964,8.28385 15.75,7.71875 15.75,7 C15.75,6.28125 15.5964,5.71354 15.2891,5.29688 C14.9818,4.88021 14.5677,4.67188 14.0469,4.67188 M14.0469,3.84375 C14.901,3.84375 15.5729,4.1224 16.0625,4.67969 C16.5521,5.23698 16.7969,6.01042 16.7969,7 C16.7969,7.97917 16.5521,8.75 16.0625,9.3125 C15.5729,9.875 14.901,10.1562 14.0469,10.1562 C13.1823,10.1562 12.5052,9.875 12.0156,9.3125 C11.526,8.75 11.2812,7.97917 11.2812,7 C11.2812,6.01042 11.526,5.23698 12.0156,4.67969 C12.5052,4.1224 13.1823,3.84375 14.0469,3.84375 M18.4219,3.98438 L19.4219,3.98438 L19.4219,10 L18.4219,10 L18.4219,3.98438 M18.4219,1.64062 L19.4219,1.64062 L19.4219,2.89062 L18.4219,2.89062 L18.4219,1.64062 M26.4688,6.375 L26.4688,10 L25.4844,10 L25.4844,6.40625 C25.4844,5.83333 25.375,5.40625 25.1562,5.125 C24.9375,4.84375 24.6042,4.70312 24.1562,4.70312 C23.625,4.70312 23.2057,4.8724 22.8984,5.21094 C22.5911,5.54948 22.4375,6.01042 22.4375,6.59375 L22.4375,10 L21.4375,10 L21.4375,3.98438 L22.4375,3.98438 L22.4375,4.92188 C22.6667,4.55729 22.9427,4.28646 23.2656,4.10938 C23.5885,3.93229 23.9583,3.84375 24.375,3.84375 C25.0625,3.84375 25.5833,4.05729 25.9375,4.48438 C26.2917,4.91146 26.4688,5.54167 26.4688,6.375 M29.4219,2.28125 L29.4219,3.98438 L31.4531,3.98438 L31.4531,4.75 L29.4219,4.75 L29.4219,8.01562 C29.4219,8.50521 29.4896,8.82031 29.625,8.96094 C29.7604,9.10156 30.0312,9.17188 30.4375,9.17188 L31.4531,9.17188 L31.4531,10 L30.4375,10 C29.6771,10 29.151,9.85677 28.8594,9.57031 C28.5677,9.28385 28.4219,8.76562 28.4219,8.01562 L28.4219,4.75 L27.7031,4.75 L27.7031,3.98438 L28.4219,3.98438 L28.4219,2.28125 L29.4219,2.28125 M33.8281,9.09375 L37.6094,9.09375 L37.6094,10 L32.5312,10 L32.5312,9.09375 C32.9375,8.66667 33.4974,8.09375 34.2109,7.375 C34.9245,6.65625 35.3698,6.19271 35.5469,5.98438 C35.8906,5.58854 36.1328,5.25521 36.2734,4.98438 C36.4141,4.71354 36.4844,4.44792 36.4844,4.1875 C36.4844,3.76042 36.3359,3.41406 36.0391,3.14844 C35.7422,2.88281 35.349,2.75 34.8594,2.75 C34.526,2.75 34.1693,2.8099 33.7891,2.92969 C33.4089,3.04948 33.0052,3.22917 32.5781,3.46875 L32.5781,2.375 C33.0156,2.19792 33.4245,2.0625 33.8047,1.96875 C34.1849,1.875 34.5312,1.82812 34.8438,1.82812 C35.6771,1.82812 36.3411,2.03646 36.8359,2.45312 C37.3307,2.86979 37.5781,3.42708 37.5781,4.125 C37.5781,4.45833 37.5156,4.77083 37.3906,5.0625 C37.2656,5.35417 37.0417,5.70312 36.7188,6.10938 C36.625,6.21354 36.3385,6.51302 35.8594,7.00781 C35.3802,7.5026 34.7031,8.19792 33.8281,9.09375 "/>
</g>

<g fill="none" stroke="#000000" stroke-opacity="1" stroke-width="1" stroke-linecap="square" stroke-linejoin="bevel" transform="matrix(2,0,0,2,473.057,170)"
font-family="sans" font-size="11" font-weight="100" font-style="normal" 
>
</g>

<g fill="none" stroke="#000000" stroke-opacity="1" stroke-width="1" stroke-linecap="square" stroke-linejoin="bevel" transform="matrix(2,0,0,2,473.057,170)"
font-family="Ubuntu" font-size="11" font-weight="400" font-style="normal" 
>
</g>

<g fill="none" stroke="#000000" stroke-opacity="1" stroke-width="1" stroke-linecap="square" stroke-linejoin="bevel" transform="matrix(2,0,0,2,1.42109e-14,302)"
font-family="Ubuntu" font-size="11" font-weight="400" font-style="normal" 
>
</g>

<g fill="#000000" fill-opacity="1" stroke="#000000" stroke-opacity="1" stroke-width="1" stroke-linecap="square" stroke-linejoin="round" transform="matrix(2,0,0,2,1.42109e-14,302)"
font-family="Ubuntu" font-size="11" font-weight="400" font-style="normal" 
>
<path vector-effect="none" fill-rule="evenodd" d="M294.73,-32.962 L293.83,-29.5145 L304.58,-30.39 L295.63,-36.4095 L294.73,-32.962"/>
</g>

<g fill="none" stroke="#000000" stroke-opacity="1" stroke-width="1" stroke-linecap="square" stroke-linejoin="bevel" transform="matrix(2,0,0,2,1.42109e-14,302)"
font-family="Ubuntu" font-size="11" font-weight="400" font-style="normal" 
>
</g>

<g fill="none" stroke="#000000" stroke-opacity="1" stroke-width="1" stroke-linecap="square" stroke-linejoin="bevel" transform="matrix(2,0,0,2,1.42109e-14,302)"
font-family="Ubuntu" font-size="11" font-weight="400" font-style="normal" 
>
</g>

<g fill="none" stroke="#000000" stroke-opacity="1" stroke-width="1" stroke-linecap="square" stroke-linejoin="bevel" transform="matrix(2,0,0,2,1.42109e-14,302)"
font-family="Ubuntu" font-size="11" font-weight="400" font-style="normal" 
>
</g>

<g fill="none" stroke="#000000" stroke-opacity="1" stroke-width="1" stroke-linecap="square" stroke-linejoin="bevel" transform="matrix(2,0,0,2,1.42109e-14,302)"
font-family="Ubuntu" font-size="11" font-weight="400" font-style="normal" 
>
</g>

<g fill="none" stroke="#000000" stroke-opacity="1" stroke-width="1" stroke-linecap="square" stroke-linejoin="round" transform="matrix(2,0,0,2,1.42109e-14,302)"
font-family="Ubuntu" font-size="11" font-weight="400" font-style="normal" 
>
<path vector-effect="none" fill-rule="evenodd" d="M226.74,-73.791 C230,-73.477 233.25,-73.206 236.38,-73 C251.96,-71.979 268.66,-71.452 284.61,-71.223 "/>
</g>

<g fill="none" stroke="#000000" stroke-opacity="1" stroke-width="1" stroke-linecap="square" stroke-linejoin="bevel" transform="matrix(2,0,0,2,1.42109e-14,302)"
font-family="Ubuntu" font-size="11" font-weight="400" font-style="normal" 
>
</g>

<g fill="none" stroke="#000000" stroke-opacity="1" stroke-width="1" stroke-linecap="square" stroke-linejoin="bevel" transform="matrix(2,0,0,2,473.057,128)"
font-family="Ubuntu" font-size="11" font-weight="400" font-style="normal" 
>
</g>

<g fill="none" stroke="#000000" stroke-opacity="1" stroke-width="1" stroke-linecap="square" stroke-linejoin="bevel" transform="matrix(2,0,0,2,473.057,128)"
font-family="sans" font-size="11" font-weight="100" font-style="normal" 
>
</g>

<g fill="#000000" fill-opacity="1" stroke="#000000" stroke-opacity="1" stroke-width="1" stroke-linecap="square" stroke-linejoin="round" transform="matrix(2,0,0,2,473.057,128)"
font-family="sans" font-size="11" font-weight="100" font-style="normal" 
>
<path vector-effect="none" fill-rule="nonzero" d="M2.79688,1.98438 L3.70312,1.98438 L0.90625,11.0156 L0,11.0156 L2.79688,1.98438 M5.70312,9.09375 L5.70312,12.2812 L4.70312,12.2812 L4.70312,3.98438 L5.70312,3.98438 L5.70312,4.89062 C5.90104,4.53646 6.15885,4.27344 6.47656,4.10156 C6.79427,3.92969 7.17708,3.84375 7.625,3.84375 C8.35417,3.84375 8.94531,4.13281 9.39844,4.71094 C9.85156,5.28906 10.0781,6.05208 10.0781,7 C10.0781,7.94792 9.85156,8.71094 9.39844,9.28906 C8.94531,9.86719 8.35417,10.1562 7.625,10.1562 C7.17708,10.1562 6.79427,10.0703 6.47656,9.89844 C6.15885,9.72656 5.90104,9.45833 5.70312,9.09375 M9.0625,7 C9.0625,6.27083 8.91146,5.70052 8.60938,5.28906 C8.30729,4.8776 7.89583,4.67188 7.375,4.67188 C6.85417,4.67188 6.44531,4.8776 6.14844,5.28906 C5.85156,5.70052 5.70312,6.27083 5.70312,7 C5.70312,7.72917 5.85156,8.29948 6.14844,8.71094 C6.44531,9.1224 6.85417,9.32812 7.375,9.32812 C7.89583,9.32812 8.30729,9.1224 8.60938,8.71094 C8.91146,8.29948 9.0625,7.72917 9.0625,7 M14.0469,4.67188 C13.5156,4.67188 13.0964,4.88021 12.7891,5.29688 C12.4818,5.71354 12.3281,6.28125 12.3281,7 C12.3281,7.71875 12.4792,8.28385 12.7812,8.69531 C13.0833,9.10677 13.5052,9.3125 14.0469,9.3125 C14.5677,9.3125 14.9818,9.10677 15.2891,8.69531 C15.5964,8.28385 15.75,7.71875 15.75,7 C15.75,6.28125 15.5964,5.71354 15.2891,5.29688 C14.9818,4.88021 14.5677,4.67188 14.0469,4.67188 M14.0469,3.84375 C14.901,3.84375 15.5729,4.1224 16.0625,4.67969 C16.5521,5.23698 16.7969,6.01042 16.7969,7 C16.7969,7.97917 16.5521,8.75 16.0625,9.3125 C15.5729,9.875 14.901,10.1562 14.0469,10.1562 C13.1823,10.1562 12.5052,9.875 12.0156,9.3125 C11.526,8.75 11.2812,7.97917 11.2812,7 C11.2812,6.01042 11.526,5.23698 12.0156,4.67969 C12.5052,4.1224 13.1823,3.84375 14.0469,3.84375 M18.4219,3.98438 L19.4219,3.98438 L19.4219,10 L18.4219,10 L18.4219,3.98438 M18.4219,1.64062 L19.4219,1.64062 L19.4219,2.89062 L18.4219,2.89062 L18.4219,1.64062 M26.4688,6.375 L26.4688,10 L25.4844,10 L25.4844,6.40625 C25.4844,5.83333 25.375,5.40625 25.1562,5.125 C24.9375,4.84375 24.6042,4.70312 24.1562,4.70312 C23.625,4.70312 23.2057,4.8724 22.8984,5.21094 C22.5911,5.54948 22.4375,6.01042 22.4375,6.59375 L22.4375,10 L21.4375,10 L21.4375,3.98438 L22.4375,3.98438 L22.4375,4.92188 C22.6667,4.55729 22.9427,4.28646 23.2656,4.10938 C23.5885,3.93229 23.9583,3.84375 24.375,3.84375 C25.0625,3.84375 25.5833,4.05729 25.9375,4.48438 C26.2917,4.91146 26.4688,5.54167 26.4688,6.375 M29.4219,2.28125 L29.4219,3.98438 L31.4531,3.98438 L31.4531,4.75 L29.4219,4.75 L29.4219,8.01562 C29.4219,8.50521 29.4896,8.82031 29.625,8.96094 C29.7604,9.10156 30.0312,9.17188 30.4375,9.17188 L31.4531,9.17188 L31.4531,10 L30.4375,10 C29.6771,10 29.151,9.85677 28.8594,9.57031 C28.5677,9.28385 28.4219,8.76562 28.4219,8.01562 L28.4219,4.75 L27.7031,4.75 L27.7031,3.98438 L28.4219,3.98438 L28.4219,2.28125 L29.4219,2.28125 M33.8281,9.09375 L37.6094,9.09375 L37.6094,10 L32.5312,10 L32.5312,9.09375 C32.9375,8.66667 33.4974,8.09375 34.2109,7.375 C34.9245,6.65625 35.3698,6.19271 35.5469,5.98438 C35.8906,5.58854 36.1328,5.25521 36.2734,4.98438 C36.4141,4.71354 36.4844,4.44792 36.4844,4.1875 C36.4844,3.76042 36.3359,3.41406 36.0391,3.14844 C35.7422,2.88281 35.349,2.75 34.8594,2.75 C34.526,2.75 34.1693,2.8099 33.7891,2.92969 C33.4089,3.04948 33.0052,3.22917 32.5781,3.46875 L32.5781,2.375 C33.0156,2.19792 33.4245,2.0625 33.8047,1.96875 C34.1849,1.875 34.5312,1.82812 34.8438,1.82812 C35.6771,1.82812 36.3411,2.03646 36.8359,2.45312 C37.3307,2.86979 37.5781,3.42708 37.5781,4.125 C37.5781,4.45833 37.5156,4.77083 37.3906,5.0625 C37.2656,5.35417 37.0417,5.70312 36.7188,6.10938 C36.625,6.21354 36.3385,6.51302 35.8594,7.00781 C35.3802,7.5026 34.7031,8.19792 33.8281,9.09375 "/>
</g>

<g fill="none" stroke="#000000" stroke-opacity="1" stroke-width="1" stroke-linecap="square" stroke-linejoin="bevel" transform="matrix(2,0,0,2,473.057,128)"
font-family="sans" font-size="11" font-weight="100" font-style="normal" 
>
</g>

<g fill="none" stroke="#000000" stroke-opacity="1" stroke-width="1" stroke-linecap="square" stroke-linejoin="bevel" transform="matrix(2,0,0,2,473.057,128)"
font-family="Ubuntu" font-size="11" font-weight="400" font-style="normal" 
>
</g>

<g fill="none" stroke="#000000" stroke-opacity="1" stroke-width="1" stroke-linecap="square" stroke-linejoin="bevel" transform="matrix(2,0,0,2,1.42109e-14,302)"
font-family="Ubuntu" font-size="11" font-weight="400" font-style="normal" 
>
</g>

<g fill="#000000" fill-opacity="1" stroke="#000000" stroke-opacity="1" stroke-width="1" stroke-linecap="square" stroke-linejoin="round" transform="matrix(2,0,0,2,1.42109e-14,302)"
font-family="Ubuntu" font-size="11" font-weight="400" font-style="normal" 
>
<path vector-effect="none" fill-rule="evenodd" d="M284.61,-71.223 L284.571,-67.5935 L294.98,-71.112 L284.649,-74.8525 L284.61,-71.223"/>
</g>

<g fill="none" stroke="#000000" stroke-opacity="1" stroke-width="1" stroke-linecap="square" stroke-linejoin="bevel" transform="matrix(2,0,0,2,1.42109e-14,302)"
font-family="Ubuntu" font-size="11" font-weight="400" font-style="normal" 
>
</g>

<g fill="none" stroke="#000000" stroke-opacity="1" stroke-width="1" stroke-linecap="square" stroke-linejoin="bevel" transform="matrix(2,0,0,2,1.42109e-14,302)"
font-family="Ubuntu" font-size="11" font-weight="400" font-style="normal" 
>
</g>

<g fill="none" stroke="#000000" stroke-opacity="1" stroke-width="1" stroke-linecap="square" stroke-linejoin="bevel" transform="matrix(2,0,0,2,1.42109e-14,302)"
font-family="Ubuntu" font-size="11" font-weight="400" font-style="normal" 
>
</g>

<g fill="none" stroke="#000000" stroke-opacity="1" stroke-width="1" stroke-linecap="square" stroke-linejoin="bevel" transform="matrix(2,0,0,2,1.42109e-14,302)"
font-family="Ubuntu" font-size="11" font-weight="400" font-style="normal" 
>
</g>

<g fill="none" stroke="#000000" stroke-opacity="1" stroke-width="1" stroke-linecap="square" stroke-linejoin="round" transform="matrix(2,0,0,2,1.42109e-14,302)"
font-family="Ubuntu" font-size="11" font-weight="400" font-style="normal" 
>
<path vector-effect="none" fill-rule="evenodd" d="M95.984,-119.57 C98.761,-119.71 101.51,-119.86 104.19,-120 C171.24,-123.52 248.12,-127.38 300.28,-129.97 "/>
</g>

<g fill="none" stroke="#000000" stroke-opacity="1" stroke-width="1" stroke-linecap="square" stroke-linejoin="bevel" transform="matrix(2,0,0,2,1.42109e-14,302)"
font-family="Ubuntu" font-size="11" font-weight="400" font-style="normal" 
>
</g>

<g fill="none" stroke="#000000" stroke-opacity="1" stroke-width="1" stroke-linecap="square" stroke-linejoin="bevel" transform="matrix(2,0,0,2,341.471,22)"
font-family="Ubuntu" font-size="11" font-weight="400" font-style="normal" 
>
</g>

<g fill="none" stroke="#000000" stroke-opacity="1" stroke-width="1" stroke-linecap="square" stroke-linejoin="bevel" transform="matrix(2,0,0,2,341.471,22)"
font-family="sans" font-size="11" font-weight="100" font-style="normal" 
>
</g>

<g fill="#000000" fill-opacity="1" stroke="#000000" stroke-opacity="1" stroke-width="1" stroke-linecap="square" stroke-linejoin="round" transform="matrix(2,0,0,2,341.471,22)"
font-family="sans" font-size="11" font-weight="100" font-style="normal" 
>
<path vector-effect="none" fill-rule="nonzero" d="M2.79688,1.98438 L3.70312,1.98438 L0.90625,11.0156 L0,11.0156 L2.79688,1.98438 M9.0625,4.21875 L9.0625,5.14062 C8.79167,4.98438 8.51562,4.86719 8.23438,4.78906 C7.95312,4.71094 7.66667,4.67188 7.375,4.67188 C6.73958,4.67188 6.24479,4.875 5.89062,5.28125 C5.53646,5.6875 5.35938,6.26042 5.35938,7 C5.35938,7.72917 5.53646,8.29688 5.89062,8.70312 C6.24479,9.10938 6.73958,9.3125 7.375,9.3125 C7.66667,9.3125 7.95312,9.27604 8.23438,9.20312 C8.51562,9.13021 8.79167,9.01562 9.0625,8.85938 L9.0625,9.76562 C8.79167,9.90104 8.50781,10 8.21094,10.0625 C7.91406,10.125 7.59896,10.1562 7.26562,10.1562 C6.35938,10.1562 5.64062,9.8724 5.10938,9.30469 C4.57812,8.73698 4.3125,7.96875 4.3125,7 C4.3125,6.02083 4.58073,5.25 5.11719,4.6875 C5.65365,4.125 6.39062,3.84375 7.32812,3.84375 C7.64062,3.84375 7.9401,3.875 8.22656,3.9375 C8.51302,4 8.79167,4.09375 9.0625,4.21875 M13.2969,10.5625 C13.0156,11.2812 12.7422,11.7474 12.4766,11.9609 C12.2109,12.1745 11.8542,12.2812 11.4062,12.2812 L10.625,12.2812 L10.625,11.4688 L11.2031,11.4688 C11.474,11.4688 11.6849,11.4036 11.8359,11.2734 C11.987,11.1432 12.151,10.8385 12.3281,10.3594 L12.5156,9.90625 L10.0781,3.98438 L11.125,3.98438 L13,8.6875 L14.8906,3.98438 L15.9375,3.98438 L13.2969,10.5625 M21.6094,4.21875 L21.6094,5.14062 C21.3385,4.98438 21.0625,4.86719 20.7812,4.78906 C20.5,4.71094 20.2135,4.67188 19.9219,4.67188 C19.2865,4.67188 18.7917,4.875 18.4375,5.28125 C18.0833,5.6875 17.9062,6.26042 17.9062,7 C17.9062,7.72917 18.0833,8.29688 18.4375,8.70312 C18.7917,9.10938 19.2865,9.3125 19.9219,9.3125 C20.2135,9.3125 20.5,9.27604 20.7812,9.20312 C21.0625,9.13021 21.3385,9.01562 21.6094,8.85938 L21.6094,9.76562 C21.3385,9.90104 21.0547,10 20.7578,10.0625 C20.4609,10.125 20.1458,10.1562 19.8125,10.1562 C18.9062,10.1562 18.1875,9.8724 17.6562,9.30469 C17.125,8.73698 16.8594,7.96875 16.8594,7 C16.8594,6.02083 17.1276,5.25 17.6641,4.6875 C18.2005,4.125 18.9375,3.84375 19.875,3.84375 C20.1875,3.84375 20.487,3.875 20.7734,3.9375 C21.0599,4 21.3385,4.09375 21.6094,4.21875 M23.3281,1.64062 L24.3281,1.64062 L24.3281,10 L23.3281,10 L23.3281,1.64062 M31.5312,6.75 L31.5312,7.23438 L26.9844,7.23438 C27.026,7.91146 27.2292,8.42708 27.5938,8.78125 C27.9583,9.13542 28.4688,9.3125 29.125,9.3125 C29.5104,9.3125 29.8802,9.26562 30.2344,9.17188 C30.5885,9.07812 30.9427,8.94271 31.2969,8.76562 L31.2969,9.6875 C30.9427,9.84375 30.5781,9.96094 30.2031,10.0391 C29.8281,10.1172 29.4531,10.1562 29.0781,10.1562 C28.1094,10.1562 27.3464,9.8776 26.7891,9.32031 C26.2318,8.76302 25.9531,8.00521 25.9531,7.04688 C25.9531,6.06771 26.2188,5.28906 26.75,4.71094 C27.2812,4.13281 28,3.84375 28.9062,3.84375 C29.7083,3.84375 30.3464,4.10417 30.8203,4.625 C31.2943,5.14583 31.5312,5.85417 31.5312,6.75 M30.5312,6.45312 C30.5312,5.91146 30.3828,5.47917 30.0859,5.15625 C29.7891,4.83333 29.3958,4.67188 28.9062,4.67188 C28.3542,4.67188 27.9141,4.82812 27.5859,5.14062 C27.2578,5.45312 27.0677,5.89062 27.0156,6.45312 L30.5312,6.45312"/>
</g>

<g fill="none" stroke="#000000" stroke-opacity="1" stroke-width="1" stroke-linecap="square" stroke-linejoin="bevel" transform="matrix(2,0,0,2,341.471,22)"
font-family="sans" font-size="11" font-weight="100" font-style="normal" 
>
</g>

<g fill="none" stroke="#000000" stroke-opacity="1" stroke-width="1" stroke-linecap="square" stroke-linejoin="bevel" transform="matrix(2,0,0,2,341.471,22)"
font-family="Ubuntu" font-size="11" font-weight="400" font-style="normal" 
>
</g>

<g fill="none" stroke="#000000" stroke-opacity="1" stroke-width="1" stroke-linecap="square" stroke-linejoin="bevel" transform="matrix(2,0,0,2,1.42109e-14,302)"
font-family="Ubuntu" font-size="11" font-weight="400" font-style="normal" 
>
</g>

<g fill="#000000" fill-opacity="1" stroke="#000000" stroke-opacity="1" stroke-width="1" stroke-linecap="square" stroke-linejoin="round" transform="matrix(2,0,0,2,1.42109e-14,302)"
font-family="Ubuntu" font-size="11" font-weight="400" font-style="normal" 
>
<path vector-effect="none" fill-rule="evenodd" d="M300.28,-129.97 L300.455,-126.435 L310.38,-130.47 L300.105,-133.505 L300.28,-129.97"/>
</g>

<g fill="none" stroke="#000000" stroke-opacity="1" stroke-width="1" stroke-linecap="square" stroke-linejoin="bevel" transform="matrix(2,0,0,2,1.42109e-14,302)"
font-family="Ubuntu" font-size="11" font-weight="400" font-style="normal" 
>
</g>

<g fill="none" stroke="#000000" stroke-opacity="1" stroke-width="1" stroke-linecap="square" stroke-linejoin="bevel" transform="matrix(1,0,0,1,0,0)"
font-family="Ubuntu" font-size="11" font-weight="400" font-style="normal" 
>
</g>
</g>
</svg>
